G04 #@! TF.GenerationSoftware,KiCad,Pcbnew,5.1.5+dfsg1-2build2*
G04 #@! TF.CreationDate,2021-11-29T23:12:50+10:30*
G04 #@! TF.ProjectId,tda8954-btl,74646138-3935-4342-9d62-746c2e6b6963,rev?*
G04 #@! TF.SameCoordinates,Original*
G04 #@! TF.FileFunction,Soldermask,Top*
G04 #@! TF.FilePolarity,Negative*
%FSLAX46Y46*%
G04 Gerber Fmt 4.6, Leading zero omitted, Abs format (unit mm)*
G04 Created by KiCad (PCBNEW 5.1.5+dfsg1-2build2) date 2021-11-29 23:12:50*
%MOMM*%
%LPD*%
G04 APERTURE LIST*
%ADD10C,0.100000*%
G04 APERTURE END LIST*
D10*
G36*
X113336174Y-68105592D02*
G01*
X113552410Y-68148604D01*
X113834674Y-68265521D01*
X114088705Y-68435259D01*
X114304741Y-68651295D01*
X114474479Y-68905326D01*
X114591396Y-69187590D01*
X114621198Y-69337415D01*
X114648303Y-69473678D01*
X114651000Y-69487240D01*
X114651000Y-69792760D01*
X114591396Y-70092410D01*
X114474479Y-70374674D01*
X114304741Y-70628705D01*
X114088705Y-70844741D01*
X113834674Y-71014479D01*
X113552410Y-71131396D01*
X113402585Y-71161198D01*
X113252761Y-71191000D01*
X112947239Y-71191000D01*
X112797415Y-71161198D01*
X112647590Y-71131396D01*
X112365326Y-71014479D01*
X112111295Y-70844741D01*
X111895259Y-70628705D01*
X111725521Y-70374674D01*
X111608604Y-70092410D01*
X111549000Y-69792760D01*
X111549000Y-69487240D01*
X111551698Y-69473678D01*
X111578802Y-69337415D01*
X111608604Y-69187590D01*
X111725521Y-68905326D01*
X111895259Y-68651295D01*
X112111295Y-68435259D01*
X112365326Y-68265521D01*
X112647590Y-68148604D01*
X112863826Y-68105592D01*
X112947239Y-68089000D01*
X113252761Y-68089000D01*
X113336174Y-68105592D01*
G37*
G36*
X91746174Y-68105592D02*
G01*
X91962410Y-68148604D01*
X92244674Y-68265521D01*
X92498705Y-68435259D01*
X92714741Y-68651295D01*
X92884479Y-68905326D01*
X93001396Y-69187590D01*
X93031198Y-69337415D01*
X93058303Y-69473678D01*
X93061000Y-69487240D01*
X93061000Y-69792760D01*
X93001396Y-70092410D01*
X92884479Y-70374674D01*
X92714741Y-70628705D01*
X92498705Y-70844741D01*
X92244674Y-71014479D01*
X91962410Y-71131396D01*
X91812585Y-71161198D01*
X91662761Y-71191000D01*
X91357239Y-71191000D01*
X91207415Y-71161198D01*
X91057590Y-71131396D01*
X90775326Y-71014479D01*
X90521295Y-70844741D01*
X90305259Y-70628705D01*
X90135521Y-70374674D01*
X90018604Y-70092410D01*
X89959000Y-69792760D01*
X89959000Y-69487240D01*
X89961698Y-69473678D01*
X89988802Y-69337415D01*
X90018604Y-69187590D01*
X90135521Y-68905326D01*
X90305259Y-68651295D01*
X90521295Y-68435259D01*
X90775326Y-68265521D01*
X91057590Y-68148604D01*
X91273826Y-68105592D01*
X91357239Y-68089000D01*
X91662761Y-68089000D01*
X91746174Y-68105592D01*
G37*
G36*
X62690601Y-69562397D02*
G01*
X62729305Y-69570096D01*
X62761340Y-69583365D01*
X62838680Y-69615400D01*
X62937115Y-69681173D01*
X63020827Y-69764885D01*
X63086600Y-69863320D01*
X63131904Y-69972696D01*
X63155000Y-70088805D01*
X63155000Y-70207195D01*
X63131904Y-70323304D01*
X63086600Y-70432680D01*
X63020827Y-70531115D01*
X62937115Y-70614827D01*
X62838680Y-70680600D01*
X62761340Y-70712635D01*
X62729305Y-70725904D01*
X62690601Y-70733603D01*
X62613195Y-70749000D01*
X62494805Y-70749000D01*
X62417399Y-70733603D01*
X62378695Y-70725904D01*
X62346660Y-70712635D01*
X62269320Y-70680600D01*
X62170885Y-70614827D01*
X62087173Y-70531115D01*
X62021400Y-70432680D01*
X61976096Y-70323304D01*
X61953000Y-70207195D01*
X61953000Y-70088805D01*
X61976096Y-69972696D01*
X62021400Y-69863320D01*
X62087173Y-69764885D01*
X62170885Y-69681173D01*
X62269320Y-69615400D01*
X62346660Y-69583365D01*
X62378695Y-69570096D01*
X62417399Y-69562397D01*
X62494805Y-69547000D01*
X62613195Y-69547000D01*
X62690601Y-69562397D01*
G37*
G36*
X73850601Y-69562397D02*
G01*
X73889305Y-69570096D01*
X73921340Y-69583365D01*
X73998680Y-69615400D01*
X74097115Y-69681173D01*
X74180827Y-69764885D01*
X74246600Y-69863320D01*
X74291904Y-69972696D01*
X74315000Y-70088805D01*
X74315000Y-70207195D01*
X74291904Y-70323304D01*
X74246600Y-70432680D01*
X74180827Y-70531115D01*
X74097115Y-70614827D01*
X73998680Y-70680600D01*
X73921340Y-70712635D01*
X73889305Y-70725904D01*
X73850601Y-70733603D01*
X73773195Y-70749000D01*
X73654805Y-70749000D01*
X73577399Y-70733603D01*
X73538695Y-70725904D01*
X73506660Y-70712635D01*
X73429320Y-70680600D01*
X73330885Y-70614827D01*
X73247173Y-70531115D01*
X73181400Y-70432680D01*
X73136096Y-70323304D01*
X73113000Y-70207195D01*
X73113000Y-70088805D01*
X73136096Y-69972696D01*
X73181400Y-69863320D01*
X73247173Y-69764885D01*
X73330885Y-69681173D01*
X73429320Y-69615400D01*
X73506660Y-69583365D01*
X73538695Y-69570096D01*
X73577399Y-69562397D01*
X73654805Y-69547000D01*
X73773195Y-69547000D01*
X73850601Y-69562397D01*
G37*
G36*
X71310601Y-69562397D02*
G01*
X71349305Y-69570096D01*
X71381340Y-69583365D01*
X71458680Y-69615400D01*
X71557115Y-69681173D01*
X71640827Y-69764885D01*
X71706600Y-69863320D01*
X71751904Y-69972696D01*
X71775000Y-70088805D01*
X71775000Y-70207195D01*
X71751904Y-70323304D01*
X71706600Y-70432680D01*
X71640827Y-70531115D01*
X71557115Y-70614827D01*
X71458680Y-70680600D01*
X71381340Y-70712635D01*
X71349305Y-70725904D01*
X71310601Y-70733603D01*
X71233195Y-70749000D01*
X71114805Y-70749000D01*
X71037399Y-70733603D01*
X70998695Y-70725904D01*
X70966660Y-70712635D01*
X70889320Y-70680600D01*
X70790885Y-70614827D01*
X70707173Y-70531115D01*
X70641400Y-70432680D01*
X70596096Y-70323304D01*
X70573000Y-70207195D01*
X70573000Y-70088805D01*
X70596096Y-69972696D01*
X70641400Y-69863320D01*
X70707173Y-69764885D01*
X70790885Y-69681173D01*
X70889320Y-69615400D01*
X70966660Y-69583365D01*
X70998695Y-69570096D01*
X71037399Y-69562397D01*
X71114805Y-69547000D01*
X71233195Y-69547000D01*
X71310601Y-69562397D01*
G37*
G36*
X65230601Y-69562397D02*
G01*
X65269305Y-69570096D01*
X65301340Y-69583365D01*
X65378680Y-69615400D01*
X65477115Y-69681173D01*
X65560827Y-69764885D01*
X65626600Y-69863320D01*
X65671904Y-69972696D01*
X65695000Y-70088805D01*
X65695000Y-70207195D01*
X65671904Y-70323304D01*
X65626600Y-70432680D01*
X65560827Y-70531115D01*
X65477115Y-70614827D01*
X65378680Y-70680600D01*
X65301340Y-70712635D01*
X65269305Y-70725904D01*
X65230601Y-70733603D01*
X65153195Y-70749000D01*
X65034805Y-70749000D01*
X64957399Y-70733603D01*
X64918695Y-70725904D01*
X64886660Y-70712635D01*
X64809320Y-70680600D01*
X64710885Y-70614827D01*
X64627173Y-70531115D01*
X64561400Y-70432680D01*
X64516096Y-70323304D01*
X64493000Y-70207195D01*
X64493000Y-70088805D01*
X64516096Y-69972696D01*
X64561400Y-69863320D01*
X64627173Y-69764885D01*
X64710885Y-69681173D01*
X64809320Y-69615400D01*
X64886660Y-69583365D01*
X64918695Y-69570096D01*
X64957399Y-69562397D01*
X65034805Y-69547000D01*
X65153195Y-69547000D01*
X65230601Y-69562397D01*
G37*
G36*
X29375256Y-67391298D02*
G01*
X29481579Y-67412447D01*
X29782042Y-67536903D01*
X30052451Y-67717585D01*
X30282415Y-67947549D01*
X30463097Y-68217958D01*
X30587553Y-68518421D01*
X30589125Y-68526324D01*
X30651000Y-68837389D01*
X30651000Y-69162611D01*
X30608702Y-69375256D01*
X30587553Y-69481579D01*
X30463097Y-69782042D01*
X30282415Y-70052451D01*
X30052451Y-70282415D01*
X29782042Y-70463097D01*
X29481579Y-70587553D01*
X29474681Y-70588925D01*
X29162611Y-70651000D01*
X28837389Y-70651000D01*
X28525319Y-70588925D01*
X28518421Y-70587553D01*
X28217958Y-70463097D01*
X27947549Y-70282415D01*
X27717585Y-70052451D01*
X27536903Y-69782042D01*
X27412447Y-69481579D01*
X27391298Y-69375256D01*
X27349000Y-69162611D01*
X27349000Y-68837389D01*
X27410875Y-68526324D01*
X27412447Y-68518421D01*
X27536903Y-68217958D01*
X27717585Y-67947549D01*
X27947549Y-67717585D01*
X28217958Y-67536903D01*
X28518421Y-67412447D01*
X28624744Y-67391298D01*
X28837389Y-67349000D01*
X29162611Y-67349000D01*
X29375256Y-67391298D01*
G37*
G36*
X121375256Y-67391298D02*
G01*
X121481579Y-67412447D01*
X121782042Y-67536903D01*
X122052451Y-67717585D01*
X122282415Y-67947549D01*
X122463097Y-68217958D01*
X122587553Y-68518421D01*
X122589125Y-68526324D01*
X122651000Y-68837389D01*
X122651000Y-69162611D01*
X122608702Y-69375256D01*
X122587553Y-69481579D01*
X122463097Y-69782042D01*
X122282415Y-70052451D01*
X122052451Y-70282415D01*
X121782042Y-70463097D01*
X121481579Y-70587553D01*
X121474681Y-70588925D01*
X121162611Y-70651000D01*
X120837389Y-70651000D01*
X120525319Y-70588925D01*
X120518421Y-70587553D01*
X120217958Y-70463097D01*
X119947549Y-70282415D01*
X119717585Y-70052451D01*
X119536903Y-69782042D01*
X119412447Y-69481579D01*
X119391298Y-69375256D01*
X119349000Y-69162611D01*
X119349000Y-68837389D01*
X119410875Y-68526324D01*
X119412447Y-68518421D01*
X119536903Y-68217958D01*
X119717585Y-67947549D01*
X119947549Y-67717585D01*
X120217958Y-67536903D01*
X120518421Y-67412447D01*
X120624744Y-67391298D01*
X120837389Y-67349000D01*
X121162611Y-67349000D01*
X121375256Y-67391298D01*
G37*
G36*
X101018903Y-68183075D02*
G01*
X101246571Y-68277378D01*
X101451466Y-68414285D01*
X101625715Y-68588534D01*
X101705748Y-68708312D01*
X101762623Y-68793431D01*
X101856925Y-69021097D01*
X101905000Y-69262786D01*
X101905000Y-69509214D01*
X101856925Y-69750903D01*
X101810361Y-69863320D01*
X101762622Y-69978571D01*
X101625715Y-70183466D01*
X101451466Y-70357715D01*
X101246571Y-70494622D01*
X101246570Y-70494623D01*
X101246569Y-70494623D01*
X101018903Y-70588925D01*
X100777214Y-70637000D01*
X100530786Y-70637000D01*
X100289097Y-70588925D01*
X100061431Y-70494623D01*
X100061430Y-70494623D01*
X100061429Y-70494622D01*
X99856534Y-70357715D01*
X99682285Y-70183466D01*
X99545378Y-69978571D01*
X99497640Y-69863320D01*
X99451075Y-69750903D01*
X99403000Y-69509214D01*
X99403000Y-69262786D01*
X99451075Y-69021097D01*
X99545377Y-68793431D01*
X99602252Y-68708312D01*
X99682285Y-68588534D01*
X99856534Y-68414285D01*
X100061429Y-68277378D01*
X100289097Y-68183075D01*
X100530786Y-68135000D01*
X100777214Y-68135000D01*
X101018903Y-68183075D01*
G37*
G36*
X106098903Y-68183075D02*
G01*
X106326571Y-68277378D01*
X106531466Y-68414285D01*
X106705715Y-68588534D01*
X106785748Y-68708312D01*
X106842623Y-68793431D01*
X106936925Y-69021097D01*
X106985000Y-69262786D01*
X106985000Y-69509214D01*
X106936925Y-69750903D01*
X106890361Y-69863320D01*
X106842622Y-69978571D01*
X106705715Y-70183466D01*
X106531466Y-70357715D01*
X106326571Y-70494622D01*
X106326570Y-70494623D01*
X106326569Y-70494623D01*
X106098903Y-70588925D01*
X105857214Y-70637000D01*
X105610786Y-70637000D01*
X105369097Y-70588925D01*
X105141431Y-70494623D01*
X105141430Y-70494623D01*
X105141429Y-70494622D01*
X104936534Y-70357715D01*
X104762285Y-70183466D01*
X104625378Y-69978571D01*
X104577640Y-69863320D01*
X104531075Y-69750903D01*
X104483000Y-69509214D01*
X104483000Y-69262786D01*
X104531075Y-69021097D01*
X104625377Y-68793431D01*
X104682252Y-68708312D01*
X104762285Y-68588534D01*
X104936534Y-68414285D01*
X105141429Y-68277378D01*
X105369097Y-68183075D01*
X105610786Y-68135000D01*
X105857214Y-68135000D01*
X106098903Y-68183075D01*
G37*
G36*
X46227290Y-68025619D02*
G01*
X46291689Y-68038429D01*
X46473678Y-68113811D01*
X46637463Y-68223249D01*
X46776751Y-68362537D01*
X46886189Y-68526322D01*
X46942581Y-68662466D01*
X46961571Y-68708312D01*
X47000000Y-68901507D01*
X47000000Y-69098493D01*
X46987246Y-69162609D01*
X46961571Y-69291689D01*
X46886189Y-69473678D01*
X46776751Y-69637463D01*
X46637463Y-69776751D01*
X46473678Y-69886189D01*
X46291689Y-69961571D01*
X46235764Y-69972695D01*
X46098493Y-70000000D01*
X45901507Y-70000000D01*
X45764236Y-69972695D01*
X45708311Y-69961571D01*
X45526322Y-69886189D01*
X45362537Y-69776751D01*
X45223249Y-69637463D01*
X45113811Y-69473678D01*
X45038429Y-69291689D01*
X45012754Y-69162609D01*
X45000000Y-69098493D01*
X45000000Y-68901507D01*
X45038429Y-68708312D01*
X45057419Y-68662466D01*
X45113811Y-68526322D01*
X45223249Y-68362537D01*
X45362537Y-68223249D01*
X45526322Y-68113811D01*
X45708311Y-68038429D01*
X45772710Y-68025619D01*
X45901507Y-68000000D01*
X46098493Y-68000000D01*
X46227290Y-68025619D01*
G37*
G36*
X98917000Y-69921000D02*
G01*
X97565000Y-69921000D01*
X97565000Y-68819000D01*
X98917000Y-68819000D01*
X98917000Y-69921000D01*
G37*
G36*
X42909903Y-66662075D02*
G01*
X43137571Y-66756378D01*
X43342466Y-66893285D01*
X43516715Y-67067534D01*
X43653622Y-67272429D01*
X43653623Y-67272431D01*
X43747925Y-67500097D01*
X43796000Y-67741786D01*
X43796000Y-67988214D01*
X43747925Y-68229903D01*
X43667541Y-68423969D01*
X43653622Y-68457571D01*
X43516715Y-68662466D01*
X43342466Y-68836715D01*
X43137571Y-68973622D01*
X43137570Y-68973623D01*
X43137569Y-68973623D01*
X42909903Y-69067925D01*
X42668214Y-69116000D01*
X42421786Y-69116000D01*
X42180097Y-69067925D01*
X41952431Y-68973623D01*
X41952430Y-68973623D01*
X41952429Y-68973622D01*
X41747534Y-68836715D01*
X41573285Y-68662466D01*
X41436378Y-68457571D01*
X41422460Y-68423969D01*
X41342075Y-68229903D01*
X41294000Y-67988214D01*
X41294000Y-67741786D01*
X41342075Y-67500097D01*
X41436377Y-67272431D01*
X41436378Y-67272429D01*
X41573285Y-67067534D01*
X41747534Y-66893285D01*
X41952429Y-66756378D01*
X42180097Y-66662075D01*
X42421786Y-66614000D01*
X42668214Y-66614000D01*
X42909903Y-66662075D01*
G37*
G36*
X63604490Y-68658490D02*
G01*
X61503510Y-68658490D01*
X61503510Y-66557510D01*
X63604490Y-66557510D01*
X63604490Y-68658490D01*
G37*
G36*
X65400416Y-66597879D02*
G01*
X65555398Y-66662075D01*
X65591594Y-66677068D01*
X65763648Y-66792031D01*
X65909969Y-66938352D01*
X66024933Y-67110408D01*
X66104121Y-67301584D01*
X66144490Y-67504534D01*
X66144490Y-67711466D01*
X66104121Y-67914416D01*
X66024933Y-68105592D01*
X66024932Y-68105594D01*
X65909969Y-68277648D01*
X65763648Y-68423969D01*
X65591594Y-68538932D01*
X65591593Y-68538933D01*
X65591592Y-68538933D01*
X65400416Y-68618121D01*
X65197466Y-68658490D01*
X64990534Y-68658490D01*
X64787584Y-68618121D01*
X64596408Y-68538933D01*
X64596407Y-68538933D01*
X64596406Y-68538932D01*
X64424352Y-68423969D01*
X64278031Y-68277648D01*
X64163068Y-68105594D01*
X64163067Y-68105592D01*
X64083879Y-67914416D01*
X64043510Y-67711466D01*
X64043510Y-67504534D01*
X64083879Y-67301584D01*
X64163067Y-67110408D01*
X64278031Y-66938352D01*
X64424352Y-66792031D01*
X64596406Y-66677068D01*
X64632602Y-66662075D01*
X64787584Y-66597879D01*
X64990534Y-66557510D01*
X65197466Y-66557510D01*
X65400416Y-66597879D01*
G37*
G36*
X74020416Y-66597879D02*
G01*
X74175398Y-66662075D01*
X74211594Y-66677068D01*
X74383648Y-66792031D01*
X74529969Y-66938352D01*
X74644933Y-67110408D01*
X74724121Y-67301584D01*
X74764490Y-67504534D01*
X74764490Y-67711466D01*
X74724121Y-67914416D01*
X74644933Y-68105592D01*
X74644932Y-68105594D01*
X74529969Y-68277648D01*
X74383648Y-68423969D01*
X74211594Y-68538932D01*
X74211593Y-68538933D01*
X74211592Y-68538933D01*
X74020416Y-68618121D01*
X73817466Y-68658490D01*
X73610534Y-68658490D01*
X73407584Y-68618121D01*
X73216408Y-68538933D01*
X73216407Y-68538933D01*
X73216406Y-68538932D01*
X73044352Y-68423969D01*
X72898031Y-68277648D01*
X72783068Y-68105594D01*
X72783067Y-68105592D01*
X72703879Y-67914416D01*
X72663510Y-67711466D01*
X72663510Y-67504534D01*
X72703879Y-67301584D01*
X72783067Y-67110408D01*
X72898031Y-66938352D01*
X73044352Y-66792031D01*
X73216406Y-66677068D01*
X73252602Y-66662075D01*
X73407584Y-66597879D01*
X73610534Y-66557510D01*
X73817466Y-66557510D01*
X74020416Y-66597879D01*
G37*
G36*
X72224490Y-68658490D02*
G01*
X70123510Y-68658490D01*
X70123510Y-66557510D01*
X72224490Y-66557510D01*
X72224490Y-68658490D01*
G37*
G36*
X98917000Y-67921000D02*
G01*
X97565000Y-67921000D01*
X97565000Y-66819000D01*
X98917000Y-66819000D01*
X98917000Y-67921000D01*
G37*
G36*
X86319000Y-66565000D02*
G01*
X85017000Y-66565000D01*
X85017000Y-65263000D01*
X86319000Y-65263000D01*
X86319000Y-66565000D01*
G37*
G36*
X83017000Y-66565000D02*
G01*
X81715000Y-66565000D01*
X81715000Y-65263000D01*
X83017000Y-65263000D01*
X83017000Y-66565000D01*
G37*
G36*
X79461000Y-66565000D02*
G01*
X78159000Y-66565000D01*
X78159000Y-65263000D01*
X79461000Y-65263000D01*
X79461000Y-66565000D01*
G37*
G36*
X113402585Y-63038802D02*
G01*
X113552410Y-63068604D01*
X113834674Y-63185521D01*
X114088705Y-63355259D01*
X114304741Y-63571295D01*
X114474479Y-63825326D01*
X114591396Y-64107590D01*
X114651000Y-64407240D01*
X114651000Y-64712760D01*
X114591396Y-65012410D01*
X114474479Y-65294674D01*
X114304741Y-65548705D01*
X114088705Y-65764741D01*
X113834674Y-65934479D01*
X113552410Y-66051396D01*
X113402585Y-66081198D01*
X113252761Y-66111000D01*
X112947239Y-66111000D01*
X112797415Y-66081198D01*
X112647590Y-66051396D01*
X112365326Y-65934479D01*
X112111295Y-65764741D01*
X111895259Y-65548705D01*
X111725521Y-65294674D01*
X111608604Y-65012410D01*
X111549000Y-64712760D01*
X111549000Y-64407240D01*
X111608604Y-64107590D01*
X111725521Y-63825326D01*
X111895259Y-63571295D01*
X112111295Y-63355259D01*
X112365326Y-63185521D01*
X112647590Y-63068604D01*
X112797415Y-63038802D01*
X112947239Y-63009000D01*
X113252761Y-63009000D01*
X113402585Y-63038802D01*
G37*
G36*
X91812585Y-63038802D02*
G01*
X91962410Y-63068604D01*
X92244674Y-63185521D01*
X92498705Y-63355259D01*
X92714741Y-63571295D01*
X92884479Y-63825326D01*
X93001396Y-64107590D01*
X93061000Y-64407240D01*
X93061000Y-64712760D01*
X93001396Y-65012410D01*
X92884479Y-65294674D01*
X92714741Y-65548705D01*
X92498705Y-65764741D01*
X92244674Y-65934479D01*
X91962410Y-66051396D01*
X91812585Y-66081198D01*
X91662761Y-66111000D01*
X91357239Y-66111000D01*
X91207415Y-66081198D01*
X91057590Y-66051396D01*
X90775326Y-65934479D01*
X90521295Y-65764741D01*
X90305259Y-65548705D01*
X90135521Y-65294674D01*
X90018604Y-65012410D01*
X89959000Y-64712760D01*
X89959000Y-64407240D01*
X90018604Y-64107590D01*
X90135521Y-63825326D01*
X90305259Y-63571295D01*
X90521295Y-63355259D01*
X90775326Y-63185521D01*
X91057590Y-63068604D01*
X91207415Y-63038802D01*
X91357239Y-63009000D01*
X91662761Y-63009000D01*
X91812585Y-63038802D01*
G37*
G36*
X103304903Y-63117075D02*
G01*
X103532571Y-63211378D01*
X103737466Y-63348285D01*
X103911715Y-63522534D01*
X104048622Y-63727429D01*
X104142925Y-63955097D01*
X104191000Y-64196787D01*
X104191000Y-64443213D01*
X104142925Y-64684903D01*
X104048622Y-64912571D01*
X103911715Y-65117466D01*
X103737466Y-65291715D01*
X103532571Y-65428622D01*
X103532570Y-65428623D01*
X103532569Y-65428623D01*
X103304903Y-65522925D01*
X103063214Y-65571000D01*
X102816786Y-65571000D01*
X102575097Y-65522925D01*
X102347431Y-65428623D01*
X102347430Y-65428623D01*
X102347429Y-65428622D01*
X102142534Y-65291715D01*
X101968285Y-65117466D01*
X101831378Y-64912571D01*
X101737075Y-64684903D01*
X101689000Y-64443213D01*
X101689000Y-64196787D01*
X101737075Y-63955097D01*
X101831378Y-63727429D01*
X101968285Y-63522534D01*
X102142534Y-63348285D01*
X102347429Y-63211378D01*
X102575097Y-63117075D01*
X102816786Y-63069000D01*
X103063214Y-63069000D01*
X103304903Y-63117075D01*
G37*
G36*
X68970000Y-64387000D02*
G01*
X67568000Y-64387000D01*
X67568000Y-63585000D01*
X68970000Y-63585000D01*
X68970000Y-64387000D01*
G37*
G36*
X79461000Y-64365000D02*
G01*
X78159000Y-64365000D01*
X78159000Y-63063000D01*
X79461000Y-63063000D01*
X79461000Y-64365000D01*
G37*
G36*
X86319000Y-64365000D02*
G01*
X85017000Y-64365000D01*
X85017000Y-63063000D01*
X86319000Y-63063000D01*
X86319000Y-64365000D01*
G37*
G36*
X83017000Y-64365000D02*
G01*
X81715000Y-64365000D01*
X81715000Y-63063000D01*
X83017000Y-63063000D01*
X83017000Y-64365000D01*
G37*
G36*
X43796000Y-64116000D02*
G01*
X41294000Y-64116000D01*
X41294000Y-61614000D01*
X43796000Y-61614000D01*
X43796000Y-64116000D01*
G37*
G36*
X68970000Y-62487000D02*
G01*
X67568000Y-62487000D01*
X67568000Y-61685000D01*
X68970000Y-61685000D01*
X68970000Y-62487000D01*
G37*
G36*
X55609903Y-59677075D02*
G01*
X55761268Y-59739772D01*
X55837571Y-59771378D01*
X56042466Y-59908285D01*
X56216715Y-60082534D01*
X56299755Y-60206812D01*
X56353623Y-60287431D01*
X56447925Y-60515097D01*
X56496000Y-60756786D01*
X56496000Y-61003214D01*
X56447925Y-61244903D01*
X56404135Y-61350623D01*
X56353622Y-61472571D01*
X56216715Y-61677466D01*
X56042466Y-61851715D01*
X55837571Y-61988622D01*
X55837570Y-61988623D01*
X55837569Y-61988623D01*
X55609903Y-62082925D01*
X55368214Y-62131000D01*
X55121786Y-62131000D01*
X54880097Y-62082925D01*
X54652431Y-61988623D01*
X54652430Y-61988623D01*
X54652429Y-61988622D01*
X54447534Y-61851715D01*
X54273285Y-61677466D01*
X54136378Y-61472571D01*
X54085866Y-61350623D01*
X54042075Y-61244903D01*
X53994000Y-61003214D01*
X53994000Y-60756786D01*
X54042075Y-60515097D01*
X54136377Y-60287431D01*
X54190245Y-60206812D01*
X54273285Y-60082534D01*
X54447534Y-59908285D01*
X54652429Y-59771378D01*
X54728733Y-59739772D01*
X54880097Y-59677075D01*
X55121786Y-59629000D01*
X55368214Y-59629000D01*
X55609903Y-59677075D01*
G37*
G36*
X113227290Y-60025619D02*
G01*
X113291689Y-60038429D01*
X113473678Y-60113811D01*
X113637463Y-60223249D01*
X113776751Y-60362537D01*
X113886189Y-60526322D01*
X113961571Y-60708311D01*
X113968363Y-60742456D01*
X114000000Y-60901507D01*
X114000000Y-61098493D01*
X113980406Y-61197000D01*
X113961571Y-61291689D01*
X113886189Y-61473678D01*
X113776751Y-61637463D01*
X113637463Y-61776751D01*
X113473678Y-61886189D01*
X113291689Y-61961571D01*
X113227290Y-61974381D01*
X113098493Y-62000000D01*
X112901507Y-62000000D01*
X112772710Y-61974381D01*
X112708311Y-61961571D01*
X112526322Y-61886189D01*
X112362537Y-61776751D01*
X112223249Y-61637463D01*
X112113811Y-61473678D01*
X112038429Y-61291689D01*
X112019594Y-61197000D01*
X112000000Y-61098493D01*
X112000000Y-60901507D01*
X112031637Y-60742456D01*
X112038429Y-60708311D01*
X112113811Y-60526322D01*
X112223249Y-60362537D01*
X112362537Y-60223249D01*
X112526322Y-60113811D01*
X112708311Y-60038429D01*
X112772710Y-60025619D01*
X112901507Y-60000000D01*
X113098493Y-60000000D01*
X113227290Y-60025619D01*
G37*
G36*
X94414903Y-59039075D02*
G01*
X94505205Y-59076479D01*
X94642571Y-59133378D01*
X94847466Y-59270285D01*
X95021715Y-59444534D01*
X95158622Y-59649429D01*
X95158623Y-59649431D01*
X95252925Y-59877097D01*
X95301000Y-60118786D01*
X95301000Y-60365214D01*
X95252925Y-60606903D01*
X95170334Y-60806297D01*
X95158622Y-60834571D01*
X95021715Y-61039466D01*
X94847466Y-61213715D01*
X94642571Y-61350622D01*
X94642570Y-61350623D01*
X94642569Y-61350623D01*
X94414903Y-61444925D01*
X94173214Y-61493000D01*
X93926786Y-61493000D01*
X93685097Y-61444925D01*
X93457431Y-61350623D01*
X93457430Y-61350623D01*
X93457429Y-61350622D01*
X93252534Y-61213715D01*
X93078285Y-61039466D01*
X92941378Y-60834571D01*
X92929667Y-60806297D01*
X92847075Y-60606903D01*
X92799000Y-60365214D01*
X92799000Y-60118786D01*
X92847075Y-59877097D01*
X92941377Y-59649431D01*
X92941378Y-59649429D01*
X93078285Y-59444534D01*
X93252534Y-59270285D01*
X93457429Y-59133378D01*
X93594796Y-59076479D01*
X93685097Y-59039075D01*
X93926786Y-58991000D01*
X94173214Y-58991000D01*
X94414903Y-59039075D01*
G37*
G36*
X32577019Y-58202147D02*
G01*
X32780410Y-58242604D01*
X33062674Y-58359521D01*
X33316705Y-58529259D01*
X33532741Y-58745295D01*
X33702479Y-58999326D01*
X33819396Y-59281590D01*
X33836911Y-59369646D01*
X33879000Y-59581239D01*
X33879000Y-59886761D01*
X33856475Y-60000000D01*
X33819396Y-60186410D01*
X33702479Y-60468674D01*
X33532741Y-60722705D01*
X33316705Y-60938741D01*
X33062674Y-61108479D01*
X32780410Y-61225396D01*
X32630585Y-61255198D01*
X32480761Y-61285000D01*
X32175239Y-61285000D01*
X32025415Y-61255198D01*
X31875590Y-61225396D01*
X31593326Y-61108479D01*
X31339295Y-60938741D01*
X31123259Y-60722705D01*
X30953521Y-60468674D01*
X30836604Y-60186410D01*
X30799525Y-60000000D01*
X30777000Y-59886761D01*
X30777000Y-59581239D01*
X30819089Y-59369646D01*
X30836604Y-59281590D01*
X30953521Y-58999326D01*
X31123259Y-58745295D01*
X31339295Y-58529259D01*
X31593326Y-58359521D01*
X31875590Y-58242604D01*
X32078981Y-58202147D01*
X32175239Y-58183000D01*
X32480761Y-58183000D01*
X32577019Y-58202147D01*
G37*
G36*
X27497019Y-58202147D02*
G01*
X27700410Y-58242604D01*
X27982674Y-58359521D01*
X28236705Y-58529259D01*
X28452741Y-58745295D01*
X28622479Y-58999326D01*
X28739396Y-59281590D01*
X28756911Y-59369646D01*
X28799000Y-59581239D01*
X28799000Y-59886761D01*
X28776475Y-60000000D01*
X28739396Y-60186410D01*
X28622479Y-60468674D01*
X28452741Y-60722705D01*
X28236705Y-60938741D01*
X27982674Y-61108479D01*
X27700410Y-61225396D01*
X27550585Y-61255198D01*
X27400761Y-61285000D01*
X27095239Y-61285000D01*
X26945415Y-61255198D01*
X26795590Y-61225396D01*
X26513326Y-61108479D01*
X26259295Y-60938741D01*
X26043259Y-60722705D01*
X25873521Y-60468674D01*
X25756604Y-60186410D01*
X25719525Y-60000000D01*
X25697000Y-59886761D01*
X25697000Y-59581239D01*
X25739089Y-59369646D01*
X25756604Y-59281590D01*
X25873521Y-58999326D01*
X26043259Y-58745295D01*
X26259295Y-58529259D01*
X26513326Y-58359521D01*
X26795590Y-58242604D01*
X26998981Y-58202147D01*
X27095239Y-58183000D01*
X27400761Y-58183000D01*
X27497019Y-58202147D01*
G37*
G36*
X69028000Y-61197000D02*
G01*
X67226000Y-61197000D01*
X67226000Y-59795000D01*
X69028000Y-59795000D01*
X69028000Y-61197000D01*
G37*
G36*
X65137512Y-59047927D02*
G01*
X65286812Y-59077624D01*
X65450784Y-59145544D01*
X65598354Y-59244147D01*
X65723853Y-59369646D01*
X65822456Y-59517216D01*
X65890376Y-59681188D01*
X65925000Y-59855259D01*
X65925000Y-60032741D01*
X65890376Y-60206812D01*
X65822456Y-60370784D01*
X65723853Y-60518354D01*
X65598354Y-60643853D01*
X65450784Y-60742456D01*
X65286812Y-60810376D01*
X65142906Y-60839000D01*
X65112742Y-60845000D01*
X64935258Y-60845000D01*
X64905094Y-60839000D01*
X64761188Y-60810376D01*
X64597216Y-60742456D01*
X64449646Y-60643853D01*
X64324147Y-60518354D01*
X64225544Y-60370784D01*
X64157624Y-60206812D01*
X64123000Y-60032741D01*
X64123000Y-59855259D01*
X64157624Y-59681188D01*
X64225544Y-59517216D01*
X64324147Y-59369646D01*
X64449646Y-59244147D01*
X64597216Y-59145544D01*
X64761188Y-59077624D01*
X64910488Y-59047927D01*
X64935258Y-59043000D01*
X65112742Y-59043000D01*
X65137512Y-59047927D01*
G37*
G36*
X78804228Y-59169703D02*
G01*
X78959100Y-59233853D01*
X79098481Y-59326985D01*
X79217015Y-59445519D01*
X79310147Y-59584900D01*
X79374297Y-59739772D01*
X79407000Y-59904184D01*
X79407000Y-60071816D01*
X79374297Y-60236228D01*
X79310147Y-60391100D01*
X79217015Y-60530481D01*
X79098481Y-60649015D01*
X78959100Y-60742147D01*
X78804228Y-60806297D01*
X78639816Y-60839000D01*
X78472184Y-60839000D01*
X78307772Y-60806297D01*
X78152900Y-60742147D01*
X78013519Y-60649015D01*
X77894985Y-60530481D01*
X77801853Y-60391100D01*
X77737703Y-60236228D01*
X77705000Y-60071816D01*
X77705000Y-59904184D01*
X77737703Y-59739772D01*
X77801853Y-59584900D01*
X77894985Y-59445519D01*
X78013519Y-59326985D01*
X78152900Y-59233853D01*
X78307772Y-59169703D01*
X78472184Y-59137000D01*
X78639816Y-59137000D01*
X78804228Y-59169703D01*
G37*
G36*
X71184228Y-59169703D02*
G01*
X71339100Y-59233853D01*
X71478481Y-59326985D01*
X71597015Y-59445519D01*
X71690147Y-59584900D01*
X71754297Y-59739772D01*
X71787000Y-59904184D01*
X71787000Y-60071816D01*
X71754297Y-60236228D01*
X71690147Y-60391100D01*
X71597015Y-60530481D01*
X71478481Y-60649015D01*
X71339100Y-60742147D01*
X71184228Y-60806297D01*
X71019816Y-60839000D01*
X70852184Y-60839000D01*
X70687772Y-60806297D01*
X70532900Y-60742147D01*
X70393519Y-60649015D01*
X70274985Y-60530481D01*
X70181853Y-60391100D01*
X70117703Y-60236228D01*
X70085000Y-60071816D01*
X70085000Y-59904184D01*
X70117703Y-59739772D01*
X70181853Y-59584900D01*
X70274985Y-59445519D01*
X70393519Y-59326985D01*
X70532900Y-59233853D01*
X70687772Y-59169703D01*
X70852184Y-59137000D01*
X71019816Y-59137000D01*
X71184228Y-59169703D01*
G37*
G36*
X83067000Y-60577000D02*
G01*
X81665000Y-60577000D01*
X81665000Y-59775000D01*
X83067000Y-59775000D01*
X83067000Y-60577000D01*
G37*
G36*
X86369000Y-60577000D02*
G01*
X84967000Y-60577000D01*
X84967000Y-59775000D01*
X86369000Y-59775000D01*
X86369000Y-60577000D01*
G37*
G36*
X122038585Y-56180802D02*
G01*
X122188410Y-56210604D01*
X122470674Y-56327521D01*
X122724705Y-56497259D01*
X122940741Y-56713295D01*
X123110479Y-56967326D01*
X123227396Y-57249590D01*
X123287000Y-57549240D01*
X123287000Y-57854760D01*
X123227396Y-58154410D01*
X123110479Y-58436674D01*
X122940741Y-58690705D01*
X122724705Y-58906741D01*
X122470674Y-59076479D01*
X122188410Y-59193396D01*
X122038585Y-59223198D01*
X121888761Y-59253000D01*
X121583239Y-59253000D01*
X121433415Y-59223198D01*
X121283590Y-59193396D01*
X121001326Y-59076479D01*
X120747295Y-58906741D01*
X120531259Y-58690705D01*
X120361521Y-58436674D01*
X120244604Y-58154410D01*
X120185000Y-57854760D01*
X120185000Y-57549240D01*
X120244604Y-57249590D01*
X120361521Y-56967326D01*
X120531259Y-56713295D01*
X120747295Y-56497259D01*
X121001326Y-56327521D01*
X121283590Y-56210604D01*
X121433415Y-56180802D01*
X121583239Y-56151000D01*
X121888761Y-56151000D01*
X122038585Y-56180802D01*
G37*
G36*
X119461000Y-58907000D02*
G01*
X114359000Y-58907000D01*
X114359000Y-55555000D01*
X119461000Y-55555000D01*
X119461000Y-58907000D01*
G37*
G36*
X86369000Y-58677000D02*
G01*
X84967000Y-58677000D01*
X84967000Y-57875000D01*
X86369000Y-57875000D01*
X86369000Y-58677000D01*
G37*
G36*
X83067000Y-58677000D02*
G01*
X81665000Y-58677000D01*
X81665000Y-57875000D01*
X83067000Y-57875000D01*
X83067000Y-58677000D01*
G37*
G36*
X65925000Y-58305000D02*
G01*
X64123000Y-58305000D01*
X64123000Y-56503000D01*
X65925000Y-56503000D01*
X65925000Y-58305000D01*
G37*
G36*
X78804228Y-56629703D02*
G01*
X78959100Y-56693853D01*
X79098481Y-56786985D01*
X79217015Y-56905519D01*
X79310147Y-57044900D01*
X79374297Y-57199772D01*
X79407000Y-57364184D01*
X79407000Y-57531816D01*
X79374297Y-57696228D01*
X79310147Y-57851100D01*
X79217015Y-57990481D01*
X79098481Y-58109015D01*
X78959100Y-58202147D01*
X78804228Y-58266297D01*
X78639816Y-58299000D01*
X78472184Y-58299000D01*
X78307772Y-58266297D01*
X78152900Y-58202147D01*
X78013519Y-58109015D01*
X77894985Y-57990481D01*
X77801853Y-57851100D01*
X77737703Y-57696228D01*
X77705000Y-57531816D01*
X77705000Y-57364184D01*
X77737703Y-57199772D01*
X77801853Y-57044900D01*
X77894985Y-56905519D01*
X78013519Y-56786985D01*
X78152900Y-56693853D01*
X78307772Y-56629703D01*
X78472184Y-56597000D01*
X78639816Y-56597000D01*
X78804228Y-56629703D01*
G37*
G36*
X71787000Y-58299000D02*
G01*
X70085000Y-58299000D01*
X70085000Y-56597000D01*
X71787000Y-56597000D01*
X71787000Y-58299000D01*
G37*
G36*
X69028000Y-57697000D02*
G01*
X67226000Y-57697000D01*
X67226000Y-56295000D01*
X69028000Y-56295000D01*
X69028000Y-57697000D01*
G37*
G36*
X56496000Y-57131000D02*
G01*
X53994000Y-57131000D01*
X53994000Y-54629000D01*
X56496000Y-54629000D01*
X56496000Y-57131000D01*
G37*
G36*
X30167487Y-54512996D02*
G01*
X30404253Y-54611068D01*
X30404255Y-54611069D01*
X30526071Y-54692464D01*
X30617339Y-54753447D01*
X30798553Y-54934661D01*
X30940932Y-55147747D01*
X31039004Y-55384513D01*
X31089000Y-55635861D01*
X31089000Y-55892139D01*
X31039004Y-56143487D01*
X30986342Y-56270623D01*
X30940931Y-56380255D01*
X30798553Y-56593339D01*
X30617339Y-56774553D01*
X30404255Y-56916931D01*
X30404254Y-56916932D01*
X30404253Y-56916932D01*
X30167487Y-57015004D01*
X29916139Y-57065000D01*
X29659861Y-57065000D01*
X29408513Y-57015004D01*
X29171747Y-56916932D01*
X29171746Y-56916932D01*
X29171745Y-56916931D01*
X28958661Y-56774553D01*
X28777447Y-56593339D01*
X28635069Y-56380255D01*
X28589658Y-56270623D01*
X28536996Y-56143487D01*
X28487000Y-55892139D01*
X28487000Y-55635861D01*
X28536996Y-55384513D01*
X28635068Y-55147747D01*
X28777447Y-54934661D01*
X28958661Y-54753447D01*
X29049929Y-54692464D01*
X29171745Y-54611069D01*
X29171747Y-54611068D01*
X29408513Y-54512996D01*
X29659861Y-54463000D01*
X29916139Y-54463000D01*
X30167487Y-54512996D01*
G37*
G36*
X94414903Y-53959075D02*
G01*
X94557678Y-54018214D01*
X94642571Y-54053378D01*
X94847466Y-54190285D01*
X95021715Y-54364534D01*
X95120915Y-54512997D01*
X95158623Y-54569431D01*
X95252925Y-54797097D01*
X95294006Y-55003623D01*
X95301000Y-55038787D01*
X95301000Y-55285213D01*
X95252925Y-55526903D01*
X95158622Y-55754571D01*
X95021715Y-55959466D01*
X94847466Y-56133715D01*
X94642571Y-56270622D01*
X94642570Y-56270623D01*
X94642569Y-56270623D01*
X94414903Y-56364925D01*
X94173214Y-56413000D01*
X93926786Y-56413000D01*
X93685097Y-56364925D01*
X93457431Y-56270623D01*
X93457430Y-56270623D01*
X93457429Y-56270622D01*
X93252534Y-56133715D01*
X93078285Y-55959466D01*
X92941378Y-55754571D01*
X92847075Y-55526903D01*
X92799000Y-55285213D01*
X92799000Y-55038787D01*
X92805995Y-55003623D01*
X92847075Y-54797097D01*
X92941377Y-54569431D01*
X92979085Y-54512997D01*
X93078285Y-54364534D01*
X93252534Y-54190285D01*
X93457429Y-54053378D01*
X93542323Y-54018214D01*
X93685097Y-53959075D01*
X93926786Y-53911000D01*
X94173214Y-53911000D01*
X94414903Y-53959075D01*
G37*
G36*
X42909903Y-52692075D02*
G01*
X43137571Y-52786378D01*
X43342466Y-52923285D01*
X43516715Y-53097534D01*
X43516716Y-53097536D01*
X43653623Y-53302431D01*
X43747925Y-53530097D01*
X43796000Y-53771786D01*
X43796000Y-54018214D01*
X43789005Y-54053378D01*
X43747925Y-54259903D01*
X43653622Y-54487571D01*
X43516715Y-54692466D01*
X43342466Y-54866715D01*
X43137571Y-55003622D01*
X43137570Y-55003623D01*
X43137569Y-55003623D01*
X42909903Y-55097925D01*
X42668214Y-55146000D01*
X42421786Y-55146000D01*
X42180097Y-55097925D01*
X41952431Y-55003623D01*
X41952430Y-55003623D01*
X41952429Y-55003622D01*
X41747534Y-54866715D01*
X41573285Y-54692466D01*
X41436378Y-54487571D01*
X41342075Y-54259903D01*
X41300995Y-54053378D01*
X41294000Y-54018214D01*
X41294000Y-53771786D01*
X41342075Y-53530097D01*
X41436377Y-53302431D01*
X41573284Y-53097536D01*
X41573285Y-53097534D01*
X41747534Y-52923285D01*
X41952429Y-52786378D01*
X42180097Y-52692075D01*
X42421786Y-52644000D01*
X42668214Y-52644000D01*
X42909903Y-52692075D01*
G37*
G36*
X82051000Y-54735000D02*
G01*
X80649000Y-54735000D01*
X80649000Y-53933000D01*
X82051000Y-53933000D01*
X82051000Y-54735000D01*
G37*
G36*
X89163000Y-54735000D02*
G01*
X87761000Y-54735000D01*
X87761000Y-53933000D01*
X89163000Y-53933000D01*
X89163000Y-54735000D01*
G37*
G36*
X86623000Y-54735000D02*
G01*
X85221000Y-54735000D01*
X85221000Y-53933000D01*
X86623000Y-53933000D01*
X86623000Y-54735000D01*
G37*
G36*
X84591000Y-54735000D02*
G01*
X83189000Y-54735000D01*
X83189000Y-53933000D01*
X84591000Y-53933000D01*
X84591000Y-54735000D01*
G37*
G36*
X64580228Y-51723703D02*
G01*
X64735100Y-51787853D01*
X64874481Y-51880985D01*
X64993015Y-51999519D01*
X65086147Y-52138900D01*
X65150297Y-52293772D01*
X65183000Y-52458184D01*
X65183000Y-52625816D01*
X65150297Y-52790228D01*
X65086147Y-52945100D01*
X64993015Y-53084481D01*
X64874481Y-53203015D01*
X64735100Y-53296147D01*
X64580228Y-53360297D01*
X64415816Y-53393000D01*
X64248184Y-53393000D01*
X64083772Y-53360297D01*
X63928900Y-53296147D01*
X63789519Y-53203015D01*
X63670985Y-53084481D01*
X63577853Y-52945100D01*
X63513703Y-52790228D01*
X63481000Y-52625816D01*
X63481000Y-52458184D01*
X63513703Y-52293772D01*
X63577853Y-52138900D01*
X63670985Y-51999519D01*
X63789519Y-51880985D01*
X63928900Y-51787853D01*
X64083772Y-51723703D01*
X64248184Y-51691000D01*
X64415816Y-51691000D01*
X64580228Y-51723703D01*
G37*
G36*
X68898228Y-51723703D02*
G01*
X69053100Y-51787853D01*
X69192481Y-51880985D01*
X69311015Y-51999519D01*
X69404147Y-52138900D01*
X69468297Y-52293772D01*
X69501000Y-52458184D01*
X69501000Y-52625816D01*
X69468297Y-52790228D01*
X69404147Y-52945100D01*
X69311015Y-53084481D01*
X69192481Y-53203015D01*
X69053100Y-53296147D01*
X68898228Y-53360297D01*
X68733816Y-53393000D01*
X68566184Y-53393000D01*
X68401772Y-53360297D01*
X68246900Y-53296147D01*
X68107519Y-53203015D01*
X67988985Y-53084481D01*
X67895853Y-52945100D01*
X67831703Y-52790228D01*
X67799000Y-52625816D01*
X67799000Y-52458184D01*
X67831703Y-52293772D01*
X67895853Y-52138900D01*
X67988985Y-51999519D01*
X68107519Y-51880985D01*
X68246900Y-51787853D01*
X68401772Y-51723703D01*
X68566184Y-51691000D01*
X68733816Y-51691000D01*
X68898228Y-51723703D01*
G37*
G36*
X84591000Y-52835000D02*
G01*
X83189000Y-52835000D01*
X83189000Y-52033000D01*
X84591000Y-52033000D01*
X84591000Y-52835000D01*
G37*
G36*
X86623000Y-52835000D02*
G01*
X85221000Y-52835000D01*
X85221000Y-52033000D01*
X86623000Y-52033000D01*
X86623000Y-52835000D01*
G37*
G36*
X89163000Y-52835000D02*
G01*
X87761000Y-52835000D01*
X87761000Y-52033000D01*
X89163000Y-52033000D01*
X89163000Y-52835000D01*
G37*
G36*
X82051000Y-52835000D02*
G01*
X80649000Y-52835000D01*
X80649000Y-52033000D01*
X82051000Y-52033000D01*
X82051000Y-52835000D01*
G37*
G36*
X27550585Y-49322802D02*
G01*
X27700410Y-49352604D01*
X27982674Y-49469521D01*
X28236705Y-49639259D01*
X28452741Y-49855295D01*
X28537682Y-49982419D01*
X28553222Y-50001353D01*
X28572163Y-50016898D01*
X28593774Y-50028449D01*
X28617223Y-50035562D01*
X28641609Y-50037964D01*
X28665995Y-50035562D01*
X28689444Y-50028449D01*
X28711055Y-50016898D01*
X28729997Y-50001352D01*
X28745542Y-49982410D01*
X28777445Y-49934663D01*
X28958661Y-49753447D01*
X29171745Y-49611069D01*
X29171747Y-49611068D01*
X29408513Y-49512996D01*
X29659861Y-49463000D01*
X29916139Y-49463000D01*
X30167487Y-49512996D01*
X30404253Y-49611068D01*
X30404255Y-49611069D01*
X30617339Y-49753447D01*
X30798555Y-49934663D01*
X30830458Y-49982410D01*
X30846003Y-50001352D01*
X30864944Y-50016897D01*
X30886555Y-50028449D01*
X30910004Y-50035562D01*
X30934390Y-50037964D01*
X30958776Y-50035562D01*
X30982225Y-50028449D01*
X31003836Y-50016898D01*
X31022778Y-50001353D01*
X31038318Y-49982419D01*
X31123259Y-49855295D01*
X31339295Y-49639259D01*
X31593326Y-49469521D01*
X31875590Y-49352604D01*
X32025415Y-49322802D01*
X32175239Y-49293000D01*
X32480761Y-49293000D01*
X32630585Y-49322802D01*
X32780410Y-49352604D01*
X33062674Y-49469521D01*
X33316705Y-49639259D01*
X33532741Y-49855295D01*
X33702479Y-50109326D01*
X33819396Y-50391590D01*
X33879000Y-50691240D01*
X33879000Y-50996760D01*
X33819396Y-51296410D01*
X33702479Y-51578674D01*
X33532741Y-51832705D01*
X33316705Y-52048741D01*
X33062674Y-52218479D01*
X32780410Y-52335396D01*
X32630585Y-52365198D01*
X32480761Y-52395000D01*
X32175239Y-52395000D01*
X32025415Y-52365198D01*
X31875590Y-52335396D01*
X31593326Y-52218479D01*
X31339295Y-52048741D01*
X31123259Y-51832705D01*
X30981940Y-51621206D01*
X30966398Y-51602269D01*
X30947456Y-51586724D01*
X30925846Y-51575173D01*
X30902397Y-51568060D01*
X30878011Y-51565658D01*
X30853625Y-51568060D01*
X30830176Y-51575173D01*
X30808565Y-51586724D01*
X30789623Y-51602269D01*
X30617339Y-51774553D01*
X30404255Y-51916931D01*
X30404254Y-51916932D01*
X30404253Y-51916932D01*
X30167487Y-52015004D01*
X29916139Y-52065000D01*
X29659861Y-52065000D01*
X29408513Y-52015004D01*
X29171747Y-51916932D01*
X29171746Y-51916932D01*
X29171745Y-51916931D01*
X28958661Y-51774553D01*
X28786377Y-51602269D01*
X28767435Y-51586724D01*
X28745824Y-51575173D01*
X28722375Y-51568060D01*
X28697989Y-51565658D01*
X28673603Y-51568060D01*
X28650154Y-51575173D01*
X28628543Y-51586724D01*
X28609601Y-51602269D01*
X28594060Y-51621206D01*
X28452741Y-51832705D01*
X28236705Y-52048741D01*
X27982674Y-52218479D01*
X27700410Y-52335396D01*
X27550585Y-52365198D01*
X27400761Y-52395000D01*
X27095239Y-52395000D01*
X26945415Y-52365198D01*
X26795590Y-52335396D01*
X26513326Y-52218479D01*
X26259295Y-52048741D01*
X26043259Y-51832705D01*
X25873521Y-51578674D01*
X25756604Y-51296410D01*
X25697000Y-50996760D01*
X25697000Y-50691240D01*
X25756604Y-50391590D01*
X25873521Y-50109326D01*
X26043259Y-49855295D01*
X26259295Y-49639259D01*
X26513326Y-49469521D01*
X26795590Y-49352604D01*
X26945415Y-49322802D01*
X27095239Y-49293000D01*
X27400761Y-49293000D01*
X27550585Y-49322802D01*
G37*
G36*
X94363000Y-52028000D02*
G01*
X93261000Y-52028000D01*
X93261000Y-50676000D01*
X94363000Y-50676000D01*
X94363000Y-52028000D01*
G37*
G36*
X96363000Y-52028000D02*
G01*
X95261000Y-52028000D01*
X95261000Y-50676000D01*
X96363000Y-50676000D01*
X96363000Y-52028000D01*
G37*
G36*
X72628000Y-51379000D02*
G01*
X71276000Y-51379000D01*
X71276000Y-50277000D01*
X72628000Y-50277000D01*
X72628000Y-51379000D01*
G37*
G36*
X78470000Y-51379000D02*
G01*
X77118000Y-51379000D01*
X77118000Y-50277000D01*
X78470000Y-50277000D01*
X78470000Y-51379000D01*
G37*
G36*
X76401000Y-51329000D02*
G01*
X75499000Y-51329000D01*
X75499000Y-50327000D01*
X76401000Y-50327000D01*
X76401000Y-51329000D01*
G37*
G36*
X74501000Y-51329000D02*
G01*
X73599000Y-51329000D01*
X73599000Y-50327000D01*
X74501000Y-50327000D01*
X74501000Y-51329000D01*
G37*
G36*
X82121000Y-51329000D02*
G01*
X81219000Y-51329000D01*
X81219000Y-50327000D01*
X82121000Y-50327000D01*
X82121000Y-51329000D01*
G37*
G36*
X84021000Y-51329000D02*
G01*
X83119000Y-51329000D01*
X83119000Y-50327000D01*
X84021000Y-50327000D01*
X84021000Y-51329000D01*
G37*
G36*
X88593000Y-51329000D02*
G01*
X87691000Y-51329000D01*
X87691000Y-50327000D01*
X88593000Y-50327000D01*
X88593000Y-51329000D01*
G37*
G36*
X86693000Y-51329000D02*
G01*
X85791000Y-51329000D01*
X85791000Y-50327000D01*
X86693000Y-50327000D01*
X86693000Y-51329000D01*
G37*
G36*
X90941000Y-51179000D02*
G01*
X89539000Y-51179000D01*
X89539000Y-50377000D01*
X90941000Y-50377000D01*
X90941000Y-51179000D01*
G37*
G36*
X80527000Y-51179000D02*
G01*
X79125000Y-51179000D01*
X79125000Y-50377000D01*
X80527000Y-50377000D01*
X80527000Y-51179000D01*
G37*
G36*
X103304903Y-48117075D02*
G01*
X103532571Y-48211378D01*
X103737466Y-48348285D01*
X103911715Y-48522534D01*
X104048622Y-48727429D01*
X104048623Y-48727431D01*
X104142925Y-48955097D01*
X104191000Y-49196786D01*
X104191000Y-49443214D01*
X104142925Y-49684903D01*
X104072347Y-49855295D01*
X104048622Y-49912571D01*
X103911715Y-50117466D01*
X103737466Y-50291715D01*
X103532571Y-50428622D01*
X103532570Y-50428623D01*
X103532569Y-50428623D01*
X103304903Y-50522925D01*
X103063214Y-50571000D01*
X102816786Y-50571000D01*
X102575097Y-50522925D01*
X102347431Y-50428623D01*
X102347430Y-50428623D01*
X102347429Y-50428622D01*
X102142534Y-50291715D01*
X101968285Y-50117466D01*
X101831378Y-49912571D01*
X101807654Y-49855295D01*
X101737075Y-49684903D01*
X101689000Y-49443214D01*
X101689000Y-49196786D01*
X101737075Y-48955097D01*
X101831377Y-48727431D01*
X101831378Y-48727429D01*
X101968285Y-48522534D01*
X102142534Y-48348285D01*
X102347429Y-48211378D01*
X102575097Y-48117075D01*
X102816786Y-48069000D01*
X103063214Y-48069000D01*
X103304903Y-48117075D01*
G37*
G36*
X43796000Y-50146000D02*
G01*
X41294000Y-50146000D01*
X41294000Y-47644000D01*
X43796000Y-47644000D01*
X43796000Y-50146000D01*
G37*
G36*
X78470000Y-49379000D02*
G01*
X77118000Y-49379000D01*
X77118000Y-48277000D01*
X78470000Y-48277000D01*
X78470000Y-49379000D01*
G37*
G36*
X72628000Y-49379000D02*
G01*
X71276000Y-49379000D01*
X71276000Y-48277000D01*
X72628000Y-48277000D01*
X72628000Y-49379000D01*
G37*
G36*
X75451000Y-49329000D02*
G01*
X74549000Y-49329000D01*
X74549000Y-48327000D01*
X75451000Y-48327000D01*
X75451000Y-49329000D01*
G37*
G36*
X83071000Y-49329000D02*
G01*
X82169000Y-49329000D01*
X82169000Y-48327000D01*
X83071000Y-48327000D01*
X83071000Y-49329000D01*
G37*
G36*
X87643000Y-49329000D02*
G01*
X86741000Y-49329000D01*
X86741000Y-48327000D01*
X87643000Y-48327000D01*
X87643000Y-49329000D01*
G37*
G36*
X80527000Y-49279000D02*
G01*
X79125000Y-49279000D01*
X79125000Y-48477000D01*
X80527000Y-48477000D01*
X80527000Y-49279000D01*
G37*
G36*
X90941000Y-49279000D02*
G01*
X89539000Y-49279000D01*
X89539000Y-48477000D01*
X90941000Y-48477000D01*
X90941000Y-49279000D01*
G37*
G36*
X95959000Y-48535000D02*
G01*
X95057000Y-48535000D01*
X95057000Y-47533000D01*
X95959000Y-47533000D01*
X95959000Y-48535000D01*
G37*
G36*
X94059000Y-48535000D02*
G01*
X93157000Y-48535000D01*
X93157000Y-47533000D01*
X94059000Y-47533000D01*
X94059000Y-48535000D01*
G37*
G36*
X68898228Y-46723703D02*
G01*
X69053100Y-46787853D01*
X69192481Y-46880985D01*
X69311015Y-46999519D01*
X69404147Y-47138900D01*
X69468297Y-47293772D01*
X69501000Y-47458184D01*
X69501000Y-47625816D01*
X69468297Y-47790228D01*
X69404147Y-47945100D01*
X69311015Y-48084481D01*
X69192481Y-48203015D01*
X69053100Y-48296147D01*
X68898228Y-48360297D01*
X68733816Y-48393000D01*
X68566184Y-48393000D01*
X68401772Y-48360297D01*
X68246900Y-48296147D01*
X68107519Y-48203015D01*
X67988985Y-48084481D01*
X67895853Y-47945100D01*
X67831703Y-47790228D01*
X67799000Y-47625816D01*
X67799000Y-47458184D01*
X67831703Y-47293772D01*
X67895853Y-47138900D01*
X67988985Y-46999519D01*
X68107519Y-46880985D01*
X68246900Y-46787853D01*
X68401772Y-46723703D01*
X68566184Y-46691000D01*
X68733816Y-46691000D01*
X68898228Y-46723703D01*
G37*
G36*
X64580228Y-46723703D02*
G01*
X64735100Y-46787853D01*
X64874481Y-46880985D01*
X64993015Y-46999519D01*
X65086147Y-47138900D01*
X65150297Y-47293772D01*
X65183000Y-47458184D01*
X65183000Y-47625816D01*
X65150297Y-47790228D01*
X65086147Y-47945100D01*
X64993015Y-48084481D01*
X64874481Y-48203015D01*
X64735100Y-48296147D01*
X64580228Y-48360297D01*
X64415816Y-48393000D01*
X64248184Y-48393000D01*
X64083772Y-48360297D01*
X63928900Y-48296147D01*
X63789519Y-48203015D01*
X63670985Y-48084481D01*
X63577853Y-47945100D01*
X63513703Y-47790228D01*
X63481000Y-47625816D01*
X63481000Y-47458184D01*
X63513703Y-47293772D01*
X63577853Y-47138900D01*
X63670985Y-46999519D01*
X63789519Y-46880985D01*
X63928900Y-46787853D01*
X64083772Y-46723703D01*
X64248184Y-46691000D01*
X64415816Y-46691000D01*
X64580228Y-46723703D01*
G37*
G36*
X55609903Y-45707075D02*
G01*
X55837571Y-45801378D01*
X56042466Y-45938285D01*
X56216715Y-46112534D01*
X56353622Y-46317429D01*
X56447925Y-46545097D01*
X56496000Y-46786787D01*
X56496000Y-47033213D01*
X56447925Y-47274903D01*
X56353622Y-47502571D01*
X56216715Y-47707466D01*
X56042466Y-47881715D01*
X55837571Y-48018622D01*
X55837570Y-48018623D01*
X55837569Y-48018623D01*
X55609903Y-48112925D01*
X55368214Y-48161000D01*
X55121786Y-48161000D01*
X54880097Y-48112925D01*
X54652431Y-48018623D01*
X54652430Y-48018623D01*
X54652429Y-48018622D01*
X54447534Y-47881715D01*
X54273285Y-47707466D01*
X54136378Y-47502571D01*
X54042075Y-47274903D01*
X53994000Y-47033213D01*
X53994000Y-46786787D01*
X54042075Y-46545097D01*
X54136378Y-46317429D01*
X54273285Y-46112534D01*
X54447534Y-45938285D01*
X54652429Y-45801378D01*
X54880097Y-45707075D01*
X55121786Y-45659000D01*
X55368214Y-45659000D01*
X55609903Y-45707075D01*
G37*
G36*
X119461000Y-47657000D02*
G01*
X114359000Y-47657000D01*
X114359000Y-44305000D01*
X119461000Y-44305000D01*
X119461000Y-47657000D01*
G37*
G36*
X31089000Y-47065000D02*
G01*
X28487000Y-47065000D01*
X28487000Y-44463000D01*
X31089000Y-44463000D01*
X31089000Y-47065000D01*
G37*
G36*
X122038585Y-43988802D02*
G01*
X122188410Y-44018604D01*
X122470674Y-44135521D01*
X122724705Y-44305259D01*
X122940741Y-44521295D01*
X123110479Y-44775326D01*
X123227396Y-45057590D01*
X123287000Y-45357240D01*
X123287000Y-45662760D01*
X123227396Y-45962410D01*
X123110479Y-46244674D01*
X122940741Y-46498705D01*
X122724705Y-46714741D01*
X122470674Y-46884479D01*
X122188410Y-47001396D01*
X122038585Y-47031198D01*
X121888761Y-47061000D01*
X121583239Y-47061000D01*
X121433415Y-47031198D01*
X121283590Y-47001396D01*
X121001326Y-46884479D01*
X120747295Y-46714741D01*
X120531259Y-46498705D01*
X120361521Y-46244674D01*
X120244604Y-45962410D01*
X120185000Y-45662760D01*
X120185000Y-45357240D01*
X120244604Y-45057590D01*
X120361521Y-44775326D01*
X120531259Y-44521295D01*
X120747295Y-44305259D01*
X121001326Y-44135521D01*
X121283590Y-44018604D01*
X121433415Y-43988802D01*
X121583239Y-43959000D01*
X121888761Y-43959000D01*
X122038585Y-43988802D01*
G37*
G36*
X95009000Y-46535000D02*
G01*
X94107000Y-46535000D01*
X94107000Y-45533000D01*
X95009000Y-45533000D01*
X95009000Y-46535000D01*
G37*
G36*
X103304903Y-44067075D02*
G01*
X103532571Y-44161378D01*
X103737466Y-44298285D01*
X103911715Y-44472534D01*
X104048622Y-44677429D01*
X104142925Y-44905097D01*
X104191000Y-45146787D01*
X104191000Y-45393213D01*
X104142925Y-45634903D01*
X104048622Y-45862571D01*
X103911715Y-46067466D01*
X103737466Y-46241715D01*
X103532571Y-46378622D01*
X103532570Y-46378623D01*
X103532569Y-46378623D01*
X103304903Y-46472925D01*
X103063214Y-46521000D01*
X102816786Y-46521000D01*
X102575097Y-46472925D01*
X102347431Y-46378623D01*
X102347430Y-46378623D01*
X102347429Y-46378622D01*
X102142534Y-46241715D01*
X101968285Y-46067466D01*
X101831378Y-45862571D01*
X101737075Y-45634903D01*
X101689000Y-45393213D01*
X101689000Y-45146787D01*
X101737075Y-44905097D01*
X101831378Y-44677429D01*
X101968285Y-44472534D01*
X102142534Y-44298285D01*
X102347429Y-44161378D01*
X102575097Y-44067075D01*
X102816786Y-44019000D01*
X103063214Y-44019000D01*
X103304903Y-44067075D01*
G37*
G36*
X82305000Y-44829000D02*
G01*
X80903000Y-44829000D01*
X80903000Y-44027000D01*
X82305000Y-44027000D01*
X82305000Y-44829000D01*
G37*
G36*
X80273000Y-44829000D02*
G01*
X78871000Y-44829000D01*
X78871000Y-44027000D01*
X80273000Y-44027000D01*
X80273000Y-44829000D01*
G37*
G36*
X92973000Y-44829000D02*
G01*
X91571000Y-44829000D01*
X91571000Y-44027000D01*
X92973000Y-44027000D01*
X92973000Y-44829000D01*
G37*
G36*
X87893000Y-44829000D02*
G01*
X86491000Y-44829000D01*
X86491000Y-44027000D01*
X87893000Y-44027000D01*
X87893000Y-44829000D01*
G37*
G36*
X95259000Y-44829000D02*
G01*
X93857000Y-44829000D01*
X93857000Y-44027000D01*
X95259000Y-44027000D01*
X95259000Y-44829000D01*
G37*
G36*
X85861000Y-44829000D02*
G01*
X84459000Y-44829000D01*
X84459000Y-44027000D01*
X85861000Y-44027000D01*
X85861000Y-44829000D01*
G37*
G36*
X27550585Y-40432802D02*
G01*
X27700410Y-40462604D01*
X27982674Y-40579521D01*
X28236705Y-40749259D01*
X28452741Y-40965295D01*
X28622479Y-41219326D01*
X28739396Y-41501590D01*
X28799000Y-41801240D01*
X28799000Y-42106760D01*
X28739396Y-42406410D01*
X28622479Y-42688674D01*
X28452741Y-42942705D01*
X28236705Y-43158741D01*
X27982674Y-43328479D01*
X27700410Y-43445396D01*
X27550585Y-43475198D01*
X27400761Y-43505000D01*
X27095239Y-43505000D01*
X26945415Y-43475198D01*
X26795590Y-43445396D01*
X26513326Y-43328479D01*
X26259295Y-43158741D01*
X26043259Y-42942705D01*
X25873521Y-42688674D01*
X25756604Y-42406410D01*
X25697000Y-42106760D01*
X25697000Y-41801240D01*
X25756604Y-41501590D01*
X25873521Y-41219326D01*
X26043259Y-40965295D01*
X26259295Y-40749259D01*
X26513326Y-40579521D01*
X26795590Y-40462604D01*
X26945415Y-40432802D01*
X27095239Y-40403000D01*
X27400761Y-40403000D01*
X27550585Y-40432802D01*
G37*
G36*
X32630585Y-40432802D02*
G01*
X32780410Y-40462604D01*
X33062674Y-40579521D01*
X33316705Y-40749259D01*
X33532741Y-40965295D01*
X33702479Y-41219326D01*
X33819396Y-41501590D01*
X33879000Y-41801240D01*
X33879000Y-42106760D01*
X33819396Y-42406410D01*
X33702479Y-42688674D01*
X33532741Y-42942705D01*
X33316705Y-43158741D01*
X33062674Y-43328479D01*
X32780410Y-43445396D01*
X32630585Y-43475198D01*
X32480761Y-43505000D01*
X32175239Y-43505000D01*
X32025415Y-43475198D01*
X31875590Y-43445396D01*
X31593326Y-43328479D01*
X31339295Y-43158741D01*
X31123259Y-42942705D01*
X30953521Y-42688674D01*
X30836604Y-42406410D01*
X30777000Y-42106760D01*
X30777000Y-41801240D01*
X30836604Y-41501590D01*
X30953521Y-41219326D01*
X31123259Y-40965295D01*
X31339295Y-40749259D01*
X31593326Y-40579521D01*
X31875590Y-40462604D01*
X32025415Y-40432802D01*
X32175239Y-40403000D01*
X32480761Y-40403000D01*
X32630585Y-40432802D01*
G37*
G36*
X56496000Y-43161000D02*
G01*
X53994000Y-43161000D01*
X53994000Y-40659000D01*
X56496000Y-40659000D01*
X56496000Y-43161000D01*
G37*
G36*
X80273000Y-42929000D02*
G01*
X78871000Y-42929000D01*
X78871000Y-42127000D01*
X80273000Y-42127000D01*
X80273000Y-42929000D01*
G37*
G36*
X87893000Y-42929000D02*
G01*
X86491000Y-42929000D01*
X86491000Y-42127000D01*
X87893000Y-42127000D01*
X87893000Y-42929000D01*
G37*
G36*
X82305000Y-42929000D02*
G01*
X80903000Y-42929000D01*
X80903000Y-42127000D01*
X82305000Y-42127000D01*
X82305000Y-42929000D01*
G37*
G36*
X85861000Y-42929000D02*
G01*
X84459000Y-42929000D01*
X84459000Y-42127000D01*
X85861000Y-42127000D01*
X85861000Y-42929000D01*
G37*
G36*
X92973000Y-42929000D02*
G01*
X91571000Y-42929000D01*
X91571000Y-42127000D01*
X92973000Y-42127000D01*
X92973000Y-42929000D01*
G37*
G36*
X95259000Y-42929000D02*
G01*
X93857000Y-42929000D01*
X93857000Y-42127000D01*
X95259000Y-42127000D01*
X95259000Y-42929000D01*
G37*
G36*
X122038585Y-38654802D02*
G01*
X122188410Y-38684604D01*
X122470674Y-38801521D01*
X122724705Y-38971259D01*
X122940741Y-39187295D01*
X123110479Y-39441326D01*
X123227396Y-39723590D01*
X123287000Y-40023240D01*
X123287000Y-40328760D01*
X123227396Y-40628410D01*
X123110479Y-40910674D01*
X122940741Y-41164705D01*
X122724705Y-41380741D01*
X122470674Y-41550479D01*
X122188410Y-41667396D01*
X122038585Y-41697198D01*
X121888761Y-41727000D01*
X121583239Y-41727000D01*
X121433415Y-41697198D01*
X121283590Y-41667396D01*
X121001326Y-41550479D01*
X120747295Y-41380741D01*
X120531259Y-41164705D01*
X120361521Y-40910674D01*
X120244604Y-40628410D01*
X120185000Y-40328760D01*
X120185000Y-40023240D01*
X120244604Y-39723590D01*
X120361521Y-39441326D01*
X120531259Y-39187295D01*
X120747295Y-38971259D01*
X121001326Y-38801521D01*
X121283590Y-38684604D01*
X121433415Y-38654802D01*
X121583239Y-38625000D01*
X121888761Y-38625000D01*
X122038585Y-38654802D01*
G37*
G36*
X94871000Y-41614000D02*
G01*
X93769000Y-41614000D01*
X93769000Y-40262000D01*
X94871000Y-40262000D01*
X94871000Y-41614000D01*
G37*
G36*
X96871000Y-41614000D02*
G01*
X95769000Y-41614000D01*
X95769000Y-40262000D01*
X96871000Y-40262000D01*
X96871000Y-41614000D01*
G37*
G36*
X92973000Y-41527000D02*
G01*
X91571000Y-41527000D01*
X91571000Y-40725000D01*
X92973000Y-40725000D01*
X92973000Y-41527000D01*
G37*
G36*
X119461000Y-41381000D02*
G01*
X114359000Y-41381000D01*
X114359000Y-38029000D01*
X119461000Y-38029000D01*
X119461000Y-41381000D01*
G37*
G36*
X81917000Y-40852000D02*
G01*
X80815000Y-40852000D01*
X80815000Y-39500000D01*
X81917000Y-39500000D01*
X81917000Y-40852000D01*
G37*
G36*
X87981000Y-40852000D02*
G01*
X86879000Y-40852000D01*
X86879000Y-39500000D01*
X87981000Y-39500000D01*
X87981000Y-40852000D01*
G37*
G36*
X85981000Y-40852000D02*
G01*
X84879000Y-40852000D01*
X84879000Y-39500000D01*
X85981000Y-39500000D01*
X85981000Y-40852000D01*
G37*
G36*
X83917000Y-40852000D02*
G01*
X82815000Y-40852000D01*
X82815000Y-39500000D01*
X83917000Y-39500000D01*
X83917000Y-40852000D01*
G37*
G36*
X92973000Y-39627000D02*
G01*
X91571000Y-39627000D01*
X91571000Y-38825000D01*
X92973000Y-38825000D01*
X92973000Y-39627000D01*
G37*
G36*
X87981000Y-39074000D02*
G01*
X86879000Y-39074000D01*
X86879000Y-37722000D01*
X87981000Y-37722000D01*
X87981000Y-39074000D01*
G37*
G36*
X85981000Y-39074000D02*
G01*
X84879000Y-39074000D01*
X84879000Y-37722000D01*
X85981000Y-37722000D01*
X85981000Y-39074000D01*
G37*
G36*
X83917000Y-39074000D02*
G01*
X82815000Y-39074000D01*
X82815000Y-37722000D01*
X83917000Y-37722000D01*
X83917000Y-39074000D01*
G37*
G36*
X81917000Y-39074000D02*
G01*
X80815000Y-39074000D01*
X80815000Y-37722000D01*
X81917000Y-37722000D01*
X81917000Y-39074000D01*
G37*
G36*
X71288000Y-38933000D02*
G01*
X69936000Y-38933000D01*
X69936000Y-37831000D01*
X71288000Y-37831000D01*
X71288000Y-38933000D01*
G37*
G36*
X77708000Y-38933000D02*
G01*
X76356000Y-38933000D01*
X76356000Y-37831000D01*
X77708000Y-37831000D01*
X77708000Y-38933000D01*
G37*
G36*
X75676000Y-38933000D02*
G01*
X74324000Y-38933000D01*
X74324000Y-37831000D01*
X75676000Y-37831000D01*
X75676000Y-38933000D01*
G37*
G36*
X73644000Y-38933000D02*
G01*
X72292000Y-38933000D01*
X72292000Y-37831000D01*
X73644000Y-37831000D01*
X73644000Y-38933000D01*
G37*
G36*
X79994000Y-38933000D02*
G01*
X78642000Y-38933000D01*
X78642000Y-37831000D01*
X79994000Y-37831000D01*
X79994000Y-38933000D01*
G37*
G36*
X69072000Y-38933000D02*
G01*
X67720000Y-38933000D01*
X67720000Y-37831000D01*
X69072000Y-37831000D01*
X69072000Y-38933000D01*
G37*
G36*
X96758000Y-38397000D02*
G01*
X95406000Y-38397000D01*
X95406000Y-37295000D01*
X96758000Y-37295000D01*
X96758000Y-38397000D01*
G37*
G36*
X94910000Y-38397000D02*
G01*
X93558000Y-38397000D01*
X93558000Y-37295000D01*
X94910000Y-37295000D01*
X94910000Y-38397000D01*
G37*
G36*
X85981000Y-37296000D02*
G01*
X84879000Y-37296000D01*
X84879000Y-35944000D01*
X85981000Y-35944000D01*
X85981000Y-37296000D01*
G37*
G36*
X87981000Y-37296000D02*
G01*
X86879000Y-37296000D01*
X86879000Y-35944000D01*
X87981000Y-35944000D01*
X87981000Y-37296000D01*
G37*
G36*
X83917000Y-37296000D02*
G01*
X82815000Y-37296000D01*
X82815000Y-35944000D01*
X83917000Y-35944000D01*
X83917000Y-37296000D01*
G37*
G36*
X81917000Y-37296000D02*
G01*
X80815000Y-37296000D01*
X80815000Y-35944000D01*
X81917000Y-35944000D01*
X81917000Y-37296000D01*
G37*
G36*
X69072000Y-36933000D02*
G01*
X67720000Y-36933000D01*
X67720000Y-35831000D01*
X69072000Y-35831000D01*
X69072000Y-36933000D01*
G37*
G36*
X77708000Y-36933000D02*
G01*
X76356000Y-36933000D01*
X76356000Y-35831000D01*
X77708000Y-35831000D01*
X77708000Y-36933000D01*
G37*
G36*
X75676000Y-36933000D02*
G01*
X74324000Y-36933000D01*
X74324000Y-35831000D01*
X75676000Y-35831000D01*
X75676000Y-36933000D01*
G37*
G36*
X79994000Y-36933000D02*
G01*
X78642000Y-36933000D01*
X78642000Y-35831000D01*
X79994000Y-35831000D01*
X79994000Y-36933000D01*
G37*
G36*
X73644000Y-36933000D02*
G01*
X72292000Y-36933000D01*
X72292000Y-35831000D01*
X73644000Y-35831000D01*
X73644000Y-36933000D01*
G37*
G36*
X71288000Y-36933000D02*
G01*
X69936000Y-36933000D01*
X69936000Y-35831000D01*
X71288000Y-35831000D01*
X71288000Y-36933000D01*
G37*
G36*
X94910000Y-36397000D02*
G01*
X93558000Y-36397000D01*
X93558000Y-35295000D01*
X94910000Y-35295000D01*
X94910000Y-36397000D01*
G37*
G36*
X96758000Y-36397000D02*
G01*
X95406000Y-36397000D01*
X95406000Y-35295000D01*
X96758000Y-35295000D01*
X96758000Y-36397000D01*
G37*
G36*
X92878000Y-35333000D02*
G01*
X91526000Y-35333000D01*
X91526000Y-34231000D01*
X92878000Y-34231000D01*
X92878000Y-35333000D01*
G37*
G36*
X42286564Y-32989389D02*
G01*
X42477833Y-33068615D01*
X42477835Y-33068616D01*
X42649973Y-33183635D01*
X42796365Y-33330027D01*
X42910388Y-33500674D01*
X42911385Y-33502167D01*
X42990611Y-33693436D01*
X43031000Y-33896484D01*
X43031000Y-34103516D01*
X42990611Y-34306564D01*
X42973852Y-34347023D01*
X42911384Y-34497835D01*
X42796365Y-34669973D01*
X42649973Y-34816365D01*
X42477835Y-34931384D01*
X42477834Y-34931385D01*
X42477833Y-34931385D01*
X42286564Y-35010611D01*
X42083516Y-35051000D01*
X41876484Y-35051000D01*
X41673436Y-35010611D01*
X41482167Y-34931385D01*
X41482166Y-34931385D01*
X41482165Y-34931384D01*
X41310027Y-34816365D01*
X41163635Y-34669973D01*
X41048616Y-34497835D01*
X40986148Y-34347023D01*
X40969389Y-34306564D01*
X40929000Y-34103516D01*
X40929000Y-33896484D01*
X40969389Y-33693436D01*
X41048615Y-33502167D01*
X41049613Y-33500674D01*
X41163635Y-33330027D01*
X41310027Y-33183635D01*
X41482165Y-33068616D01*
X41482167Y-33068615D01*
X41673436Y-32989389D01*
X41876484Y-32949000D01*
X42083516Y-32949000D01*
X42286564Y-32989389D01*
G37*
G36*
X53462564Y-32989389D02*
G01*
X53653833Y-33068615D01*
X53653835Y-33068616D01*
X53825973Y-33183635D01*
X53972365Y-33330027D01*
X54086388Y-33500674D01*
X54087385Y-33502167D01*
X54166611Y-33693436D01*
X54207000Y-33896484D01*
X54207000Y-34103516D01*
X54166611Y-34306564D01*
X54149852Y-34347023D01*
X54087384Y-34497835D01*
X53972365Y-34669973D01*
X53825973Y-34816365D01*
X53653835Y-34931384D01*
X53653834Y-34931385D01*
X53653833Y-34931385D01*
X53462564Y-35010611D01*
X53259516Y-35051000D01*
X53052484Y-35051000D01*
X52849436Y-35010611D01*
X52658167Y-34931385D01*
X52658166Y-34931385D01*
X52658165Y-34931384D01*
X52486027Y-34816365D01*
X52339635Y-34669973D01*
X52224616Y-34497835D01*
X52162148Y-34347023D01*
X52145389Y-34306564D01*
X52105000Y-34103516D01*
X52105000Y-33896484D01*
X52145389Y-33693436D01*
X52224615Y-33502167D01*
X52225613Y-33500674D01*
X52339635Y-33330027D01*
X52486027Y-33183635D01*
X52658165Y-33068616D01*
X52658167Y-33068615D01*
X52849436Y-32989389D01*
X53052484Y-32949000D01*
X53259516Y-32949000D01*
X53462564Y-32989389D01*
G37*
G36*
X89127022Y-33100590D02*
G01*
X89227681Y-33131125D01*
X89278012Y-33146392D01*
X89347688Y-33183635D01*
X89417164Y-33220771D01*
X89539133Y-33320867D01*
X89546650Y-33330027D01*
X89639229Y-33442835D01*
X89713608Y-33581987D01*
X89728875Y-33632318D01*
X89759410Y-33732977D01*
X89771000Y-33850655D01*
X89771000Y-34229344D01*
X89759410Y-34347022D01*
X89728875Y-34447682D01*
X89713608Y-34498013D01*
X89639229Y-34637165D01*
X89539133Y-34759133D01*
X89417165Y-34859229D01*
X89278013Y-34933608D01*
X89227682Y-34948875D01*
X89127023Y-34979410D01*
X88970000Y-34994875D01*
X88812978Y-34979410D01*
X88712319Y-34948875D01*
X88661988Y-34933608D01*
X88522836Y-34859229D01*
X88400867Y-34759133D01*
X88300771Y-34637165D01*
X88226392Y-34498013D01*
X88211125Y-34447682D01*
X88180590Y-34347023D01*
X88169000Y-34229345D01*
X88169000Y-33850656D01*
X88180590Y-33732978D01*
X88226392Y-33581989D01*
X88226392Y-33581988D01*
X88300771Y-33442836D01*
X88300772Y-33442835D01*
X88400867Y-33320867D01*
X88522835Y-33220771D01*
X88592311Y-33183635D01*
X88661987Y-33146392D01*
X88712318Y-33131125D01*
X88812977Y-33100590D01*
X88970000Y-33085125D01*
X89127022Y-33100590D01*
G37*
G36*
X86587022Y-33100590D02*
G01*
X86687681Y-33131125D01*
X86738012Y-33146392D01*
X86807688Y-33183635D01*
X86877164Y-33220771D01*
X86999133Y-33320867D01*
X87006650Y-33330027D01*
X87099229Y-33442835D01*
X87173608Y-33581987D01*
X87188875Y-33632318D01*
X87219410Y-33732977D01*
X87231000Y-33850655D01*
X87231000Y-34229344D01*
X87219410Y-34347022D01*
X87188875Y-34447682D01*
X87173608Y-34498013D01*
X87099229Y-34637165D01*
X86999133Y-34759133D01*
X86877165Y-34859229D01*
X86738013Y-34933608D01*
X86687682Y-34948875D01*
X86587023Y-34979410D01*
X86430000Y-34994875D01*
X86272978Y-34979410D01*
X86172319Y-34948875D01*
X86121988Y-34933608D01*
X85982836Y-34859229D01*
X85860867Y-34759133D01*
X85760771Y-34637165D01*
X85686392Y-34498013D01*
X85671125Y-34447682D01*
X85640590Y-34347023D01*
X85629000Y-34229345D01*
X85629000Y-33850656D01*
X85640590Y-33732978D01*
X85686392Y-33581989D01*
X85686392Y-33581988D01*
X85760771Y-33442836D01*
X85760772Y-33442835D01*
X85860867Y-33320867D01*
X85982835Y-33220771D01*
X86052311Y-33183635D01*
X86121987Y-33146392D01*
X86172318Y-33131125D01*
X86272977Y-33100590D01*
X86430000Y-33085125D01*
X86587022Y-33100590D01*
G37*
G36*
X84047022Y-33100590D02*
G01*
X84147681Y-33131125D01*
X84198012Y-33146392D01*
X84267688Y-33183635D01*
X84337164Y-33220771D01*
X84459133Y-33320867D01*
X84466650Y-33330027D01*
X84559229Y-33442835D01*
X84633608Y-33581987D01*
X84648875Y-33632318D01*
X84679410Y-33732977D01*
X84691000Y-33850655D01*
X84691000Y-34229344D01*
X84679410Y-34347022D01*
X84648875Y-34447682D01*
X84633608Y-34498013D01*
X84559229Y-34637165D01*
X84459133Y-34759133D01*
X84337165Y-34859229D01*
X84198013Y-34933608D01*
X84147682Y-34948875D01*
X84047023Y-34979410D01*
X83890000Y-34994875D01*
X83732978Y-34979410D01*
X83632319Y-34948875D01*
X83581988Y-34933608D01*
X83442836Y-34859229D01*
X83320867Y-34759133D01*
X83220771Y-34637165D01*
X83146392Y-34498013D01*
X83131125Y-34447682D01*
X83100590Y-34347023D01*
X83089000Y-34229345D01*
X83089000Y-33850656D01*
X83100590Y-33732978D01*
X83146392Y-33581989D01*
X83146392Y-33581988D01*
X83220771Y-33442836D01*
X83220772Y-33442835D01*
X83320867Y-33320867D01*
X83442835Y-33220771D01*
X83512311Y-33183635D01*
X83581987Y-33146392D01*
X83632318Y-33131125D01*
X83732977Y-33100590D01*
X83890000Y-33085125D01*
X84047022Y-33100590D01*
G37*
G36*
X81507022Y-33100590D02*
G01*
X81607681Y-33131125D01*
X81658012Y-33146392D01*
X81727688Y-33183635D01*
X81797164Y-33220771D01*
X81919133Y-33320867D01*
X81926650Y-33330027D01*
X82019229Y-33442835D01*
X82093608Y-33581987D01*
X82108875Y-33632318D01*
X82139410Y-33732977D01*
X82151000Y-33850655D01*
X82151000Y-34229344D01*
X82139410Y-34347022D01*
X82108875Y-34447682D01*
X82093608Y-34498013D01*
X82019229Y-34637165D01*
X81919133Y-34759133D01*
X81797165Y-34859229D01*
X81658013Y-34933608D01*
X81607682Y-34948875D01*
X81507023Y-34979410D01*
X81350000Y-34994875D01*
X81192978Y-34979410D01*
X81092319Y-34948875D01*
X81041988Y-34933608D01*
X80902836Y-34859229D01*
X80780867Y-34759133D01*
X80680771Y-34637165D01*
X80606392Y-34498013D01*
X80591125Y-34447682D01*
X80560590Y-34347023D01*
X80549000Y-34229345D01*
X80549000Y-33850656D01*
X80560590Y-33732978D01*
X80606392Y-33581989D01*
X80606392Y-33581988D01*
X80680771Y-33442836D01*
X80680772Y-33442835D01*
X80780867Y-33320867D01*
X80902835Y-33220771D01*
X80972311Y-33183635D01*
X81041987Y-33146392D01*
X81092318Y-33131125D01*
X81192977Y-33100590D01*
X81350000Y-33085125D01*
X81507022Y-33100590D01*
G37*
G36*
X63727022Y-33100590D02*
G01*
X63827681Y-33131125D01*
X63878012Y-33146392D01*
X63947688Y-33183635D01*
X64017164Y-33220771D01*
X64139133Y-33320867D01*
X64146650Y-33330027D01*
X64239229Y-33442835D01*
X64313608Y-33581987D01*
X64328875Y-33632318D01*
X64359410Y-33732977D01*
X64371000Y-33850655D01*
X64371000Y-34229344D01*
X64359410Y-34347022D01*
X64328875Y-34447682D01*
X64313608Y-34498013D01*
X64239229Y-34637165D01*
X64139133Y-34759133D01*
X64017165Y-34859229D01*
X63878013Y-34933608D01*
X63827682Y-34948875D01*
X63727023Y-34979410D01*
X63570000Y-34994875D01*
X63412978Y-34979410D01*
X63312319Y-34948875D01*
X63261988Y-34933608D01*
X63122836Y-34859229D01*
X63000867Y-34759133D01*
X62900771Y-34637165D01*
X62826392Y-34498013D01*
X62811125Y-34447682D01*
X62780590Y-34347023D01*
X62769000Y-34229345D01*
X62769000Y-33850656D01*
X62780590Y-33732978D01*
X62826392Y-33581989D01*
X62826392Y-33581988D01*
X62900771Y-33442836D01*
X62900772Y-33442835D01*
X63000867Y-33320867D01*
X63122835Y-33220771D01*
X63192311Y-33183635D01*
X63261987Y-33146392D01*
X63312318Y-33131125D01*
X63412977Y-33100590D01*
X63570000Y-33085125D01*
X63727022Y-33100590D01*
G37*
G36*
X78967022Y-33100590D02*
G01*
X79067681Y-33131125D01*
X79118012Y-33146392D01*
X79187688Y-33183635D01*
X79257164Y-33220771D01*
X79379133Y-33320867D01*
X79386650Y-33330027D01*
X79479229Y-33442835D01*
X79553608Y-33581987D01*
X79568875Y-33632318D01*
X79599410Y-33732977D01*
X79611000Y-33850655D01*
X79611000Y-34229344D01*
X79599410Y-34347022D01*
X79568875Y-34447682D01*
X79553608Y-34498013D01*
X79479229Y-34637165D01*
X79379133Y-34759133D01*
X79257165Y-34859229D01*
X79118013Y-34933608D01*
X79067682Y-34948875D01*
X78967023Y-34979410D01*
X78810000Y-34994875D01*
X78652978Y-34979410D01*
X78552319Y-34948875D01*
X78501988Y-34933608D01*
X78362836Y-34859229D01*
X78240867Y-34759133D01*
X78140771Y-34637165D01*
X78066392Y-34498013D01*
X78051125Y-34447682D01*
X78020590Y-34347023D01*
X78009000Y-34229345D01*
X78009000Y-33850656D01*
X78020590Y-33732978D01*
X78066392Y-33581989D01*
X78066392Y-33581988D01*
X78140771Y-33442836D01*
X78140772Y-33442835D01*
X78240867Y-33320867D01*
X78362835Y-33220771D01*
X78432311Y-33183635D01*
X78501987Y-33146392D01*
X78552318Y-33131125D01*
X78652977Y-33100590D01*
X78810000Y-33085125D01*
X78967022Y-33100590D01*
G37*
G36*
X66267022Y-33100590D02*
G01*
X66367681Y-33131125D01*
X66418012Y-33146392D01*
X66487688Y-33183635D01*
X66557164Y-33220771D01*
X66679133Y-33320867D01*
X66686650Y-33330027D01*
X66779229Y-33442835D01*
X66853608Y-33581987D01*
X66868875Y-33632318D01*
X66899410Y-33732977D01*
X66911000Y-33850655D01*
X66911000Y-34229344D01*
X66899410Y-34347022D01*
X66868875Y-34447682D01*
X66853608Y-34498013D01*
X66779229Y-34637165D01*
X66679133Y-34759133D01*
X66557165Y-34859229D01*
X66418013Y-34933608D01*
X66367682Y-34948875D01*
X66267023Y-34979410D01*
X66110000Y-34994875D01*
X65952978Y-34979410D01*
X65852319Y-34948875D01*
X65801988Y-34933608D01*
X65662836Y-34859229D01*
X65540867Y-34759133D01*
X65440771Y-34637165D01*
X65366392Y-34498013D01*
X65351125Y-34447682D01*
X65320590Y-34347023D01*
X65309000Y-34229345D01*
X65309000Y-33850656D01*
X65320590Y-33732978D01*
X65366392Y-33581989D01*
X65366392Y-33581988D01*
X65440771Y-33442836D01*
X65440772Y-33442835D01*
X65540867Y-33320867D01*
X65662835Y-33220771D01*
X65732311Y-33183635D01*
X65801987Y-33146392D01*
X65852318Y-33131125D01*
X65952977Y-33100590D01*
X66110000Y-33085125D01*
X66267022Y-33100590D01*
G37*
G36*
X68807022Y-33100590D02*
G01*
X68907681Y-33131125D01*
X68958012Y-33146392D01*
X69027688Y-33183635D01*
X69097164Y-33220771D01*
X69219133Y-33320867D01*
X69226650Y-33330027D01*
X69319229Y-33442835D01*
X69393608Y-33581987D01*
X69408875Y-33632318D01*
X69439410Y-33732977D01*
X69451000Y-33850655D01*
X69451000Y-34229344D01*
X69439410Y-34347022D01*
X69408875Y-34447682D01*
X69393608Y-34498013D01*
X69319229Y-34637165D01*
X69219133Y-34759133D01*
X69097165Y-34859229D01*
X68958013Y-34933608D01*
X68907682Y-34948875D01*
X68807023Y-34979410D01*
X68650000Y-34994875D01*
X68492978Y-34979410D01*
X68392319Y-34948875D01*
X68341988Y-34933608D01*
X68202836Y-34859229D01*
X68080867Y-34759133D01*
X67980771Y-34637165D01*
X67906392Y-34498013D01*
X67891125Y-34447682D01*
X67860590Y-34347023D01*
X67849000Y-34229345D01*
X67849000Y-33850656D01*
X67860590Y-33732978D01*
X67906392Y-33581989D01*
X67906392Y-33581988D01*
X67980771Y-33442836D01*
X67980772Y-33442835D01*
X68080867Y-33320867D01*
X68202835Y-33220771D01*
X68272311Y-33183635D01*
X68341987Y-33146392D01*
X68392318Y-33131125D01*
X68492977Y-33100590D01*
X68650000Y-33085125D01*
X68807022Y-33100590D01*
G37*
G36*
X76427022Y-33100590D02*
G01*
X76527681Y-33131125D01*
X76578012Y-33146392D01*
X76647688Y-33183635D01*
X76717164Y-33220771D01*
X76839133Y-33320867D01*
X76846650Y-33330027D01*
X76939229Y-33442835D01*
X77013608Y-33581987D01*
X77028875Y-33632318D01*
X77059410Y-33732977D01*
X77071000Y-33850655D01*
X77071000Y-34229344D01*
X77059410Y-34347022D01*
X77028875Y-34447682D01*
X77013608Y-34498013D01*
X76939229Y-34637165D01*
X76839133Y-34759133D01*
X76717165Y-34859229D01*
X76578013Y-34933608D01*
X76527682Y-34948875D01*
X76427023Y-34979410D01*
X76270000Y-34994875D01*
X76112978Y-34979410D01*
X76012319Y-34948875D01*
X75961988Y-34933608D01*
X75822836Y-34859229D01*
X75700867Y-34759133D01*
X75600771Y-34637165D01*
X75526392Y-34498013D01*
X75511125Y-34447682D01*
X75480590Y-34347023D01*
X75469000Y-34229345D01*
X75469000Y-33850656D01*
X75480590Y-33732978D01*
X75526392Y-33581989D01*
X75526392Y-33581988D01*
X75600771Y-33442836D01*
X75600772Y-33442835D01*
X75700867Y-33320867D01*
X75822835Y-33220771D01*
X75892311Y-33183635D01*
X75961987Y-33146392D01*
X76012318Y-33131125D01*
X76112977Y-33100590D01*
X76270000Y-33085125D01*
X76427022Y-33100590D01*
G37*
G36*
X71347022Y-33100590D02*
G01*
X71447681Y-33131125D01*
X71498012Y-33146392D01*
X71567688Y-33183635D01*
X71637164Y-33220771D01*
X71759133Y-33320867D01*
X71766650Y-33330027D01*
X71859229Y-33442835D01*
X71933608Y-33581987D01*
X71948875Y-33632318D01*
X71979410Y-33732977D01*
X71991000Y-33850655D01*
X71991000Y-34229344D01*
X71979410Y-34347022D01*
X71948875Y-34447682D01*
X71933608Y-34498013D01*
X71859229Y-34637165D01*
X71759133Y-34759133D01*
X71637165Y-34859229D01*
X71498013Y-34933608D01*
X71447682Y-34948875D01*
X71347023Y-34979410D01*
X71190000Y-34994875D01*
X71032978Y-34979410D01*
X70932319Y-34948875D01*
X70881988Y-34933608D01*
X70742836Y-34859229D01*
X70620867Y-34759133D01*
X70520771Y-34637165D01*
X70446392Y-34498013D01*
X70431125Y-34447682D01*
X70400590Y-34347023D01*
X70389000Y-34229345D01*
X70389000Y-33850656D01*
X70400590Y-33732978D01*
X70446392Y-33581989D01*
X70446392Y-33581988D01*
X70520771Y-33442836D01*
X70520772Y-33442835D01*
X70620867Y-33320867D01*
X70742835Y-33220771D01*
X70812311Y-33183635D01*
X70881987Y-33146392D01*
X70932318Y-33131125D01*
X71032977Y-33100590D01*
X71190000Y-33085125D01*
X71347022Y-33100590D01*
G37*
G36*
X61187022Y-33100590D02*
G01*
X61287681Y-33131125D01*
X61338012Y-33146392D01*
X61407688Y-33183635D01*
X61477164Y-33220771D01*
X61599133Y-33320867D01*
X61606650Y-33330027D01*
X61699229Y-33442835D01*
X61773608Y-33581987D01*
X61788875Y-33632318D01*
X61819410Y-33732977D01*
X61831000Y-33850655D01*
X61831000Y-34229344D01*
X61819410Y-34347022D01*
X61788875Y-34447682D01*
X61773608Y-34498013D01*
X61699229Y-34637165D01*
X61599133Y-34759133D01*
X61477165Y-34859229D01*
X61338013Y-34933608D01*
X61287682Y-34948875D01*
X61187023Y-34979410D01*
X61030000Y-34994875D01*
X60872978Y-34979410D01*
X60772319Y-34948875D01*
X60721988Y-34933608D01*
X60582836Y-34859229D01*
X60460867Y-34759133D01*
X60360771Y-34637165D01*
X60286392Y-34498013D01*
X60271125Y-34447682D01*
X60240590Y-34347023D01*
X60229000Y-34229345D01*
X60229000Y-33850656D01*
X60240590Y-33732978D01*
X60286392Y-33581989D01*
X60286392Y-33581988D01*
X60360771Y-33442836D01*
X60360772Y-33442835D01*
X60460867Y-33320867D01*
X60582835Y-33220771D01*
X60652311Y-33183635D01*
X60721987Y-33146392D01*
X60772318Y-33131125D01*
X60872977Y-33100590D01*
X61030000Y-33085125D01*
X61187022Y-33100590D01*
G37*
G36*
X73887022Y-33100590D02*
G01*
X73987681Y-33131125D01*
X74038012Y-33146392D01*
X74107688Y-33183635D01*
X74177164Y-33220771D01*
X74299133Y-33320867D01*
X74306650Y-33330027D01*
X74399229Y-33442835D01*
X74473608Y-33581987D01*
X74488875Y-33632318D01*
X74519410Y-33732977D01*
X74531000Y-33850655D01*
X74531000Y-34229344D01*
X74519410Y-34347022D01*
X74488875Y-34447682D01*
X74473608Y-34498013D01*
X74399229Y-34637165D01*
X74299133Y-34759133D01*
X74177165Y-34859229D01*
X74038013Y-34933608D01*
X73987682Y-34948875D01*
X73887023Y-34979410D01*
X73730000Y-34994875D01*
X73572978Y-34979410D01*
X73472319Y-34948875D01*
X73421988Y-34933608D01*
X73282836Y-34859229D01*
X73160867Y-34759133D01*
X73060771Y-34637165D01*
X72986392Y-34498013D01*
X72971125Y-34447682D01*
X72940590Y-34347023D01*
X72929000Y-34229345D01*
X72929000Y-33850656D01*
X72940590Y-33732978D01*
X72986392Y-33581989D01*
X72986392Y-33581988D01*
X73060771Y-33442836D01*
X73060772Y-33442835D01*
X73160867Y-33320867D01*
X73282835Y-33220771D01*
X73352311Y-33183635D01*
X73421987Y-33146392D01*
X73472318Y-33131125D01*
X73572977Y-33100590D01*
X73730000Y-33085125D01*
X73887022Y-33100590D01*
G37*
G36*
X94955000Y-34483000D02*
G01*
X94153000Y-34483000D01*
X94153000Y-33081000D01*
X94955000Y-33081000D01*
X94955000Y-34483000D01*
G37*
G36*
X96855000Y-34483000D02*
G01*
X96053000Y-34483000D01*
X96053000Y-33081000D01*
X96855000Y-33081000D01*
X96855000Y-34483000D01*
G37*
G36*
X29497066Y-31241715D02*
G01*
X29662410Y-31274604D01*
X29944674Y-31391521D01*
X30198705Y-31561259D01*
X30414741Y-31777295D01*
X30584479Y-32031326D01*
X30701396Y-32313590D01*
X30761000Y-32613240D01*
X30761000Y-32918760D01*
X30701396Y-33218410D01*
X30584479Y-33500674D01*
X30414741Y-33754705D01*
X30198705Y-33970741D01*
X29944674Y-34140479D01*
X29662410Y-34257396D01*
X29512585Y-34287198D01*
X29362761Y-34317000D01*
X29057239Y-34317000D01*
X28907415Y-34287198D01*
X28757590Y-34257396D01*
X28475326Y-34140479D01*
X28221295Y-33970741D01*
X28005259Y-33754705D01*
X27835521Y-33500674D01*
X27718604Y-33218410D01*
X27659000Y-32918760D01*
X27659000Y-32613240D01*
X27718604Y-32313590D01*
X27835521Y-32031326D01*
X28005259Y-31777295D01*
X28221295Y-31561259D01*
X28475326Y-31391521D01*
X28757590Y-31274604D01*
X28922934Y-31241715D01*
X29057239Y-31215000D01*
X29362761Y-31215000D01*
X29497066Y-31241715D01*
G37*
G36*
X92878000Y-33333000D02*
G01*
X91526000Y-33333000D01*
X91526000Y-32231000D01*
X92878000Y-32231000D01*
X92878000Y-33333000D01*
G37*
G36*
X96855000Y-32451000D02*
G01*
X96053000Y-32451000D01*
X96053000Y-31049000D01*
X96855000Y-31049000D01*
X96855000Y-32451000D01*
G37*
G36*
X94955000Y-32451000D02*
G01*
X94153000Y-32451000D01*
X94153000Y-31049000D01*
X94955000Y-31049000D01*
X94955000Y-32451000D01*
G37*
G36*
X74511000Y-32391000D02*
G01*
X73409000Y-32391000D01*
X73409000Y-30689000D01*
X74511000Y-30689000D01*
X74511000Y-32391000D01*
G37*
G36*
X71511000Y-32391000D02*
G01*
X70409000Y-32391000D01*
X70409000Y-30689000D01*
X71511000Y-30689000D01*
X71511000Y-32391000D01*
G37*
G36*
X76591000Y-32391000D02*
G01*
X75489000Y-32391000D01*
X75489000Y-30689000D01*
X76591000Y-30689000D01*
X76591000Y-32391000D01*
G37*
G36*
X79591000Y-32391000D02*
G01*
X78489000Y-32391000D01*
X78489000Y-30689000D01*
X79591000Y-30689000D01*
X79591000Y-32391000D01*
G37*
G36*
X66445000Y-32241000D02*
G01*
X65643000Y-32241000D01*
X65643000Y-30839000D01*
X66445000Y-30839000D01*
X66445000Y-32241000D01*
G37*
G36*
X64545000Y-32241000D02*
G01*
X63743000Y-32241000D01*
X63743000Y-30839000D01*
X64545000Y-30839000D01*
X64545000Y-32241000D01*
G37*
G36*
X63143000Y-32241000D02*
G01*
X62341000Y-32241000D01*
X62341000Y-30839000D01*
X63143000Y-30839000D01*
X63143000Y-32241000D01*
G37*
G36*
X61243000Y-32241000D02*
G01*
X60441000Y-32241000D01*
X60441000Y-30839000D01*
X61243000Y-30839000D01*
X61243000Y-32241000D01*
G37*
G36*
X103304903Y-29067075D02*
G01*
X103503519Y-29149344D01*
X103532571Y-29161378D01*
X103737466Y-29298285D01*
X103911715Y-29472534D01*
X103960135Y-29545000D01*
X104048623Y-29677431D01*
X104142925Y-29905097D01*
X104191000Y-30146786D01*
X104191000Y-30393214D01*
X104142925Y-30634903D01*
X104058386Y-30839000D01*
X104048622Y-30862571D01*
X103911715Y-31067466D01*
X103737466Y-31241715D01*
X103532571Y-31378622D01*
X103532570Y-31378623D01*
X103532569Y-31378623D01*
X103304903Y-31472925D01*
X103063214Y-31521000D01*
X102816786Y-31521000D01*
X102575097Y-31472925D01*
X102347431Y-31378623D01*
X102347430Y-31378623D01*
X102347429Y-31378622D01*
X102142534Y-31241715D01*
X101968285Y-31067466D01*
X101831378Y-30862571D01*
X101821615Y-30839000D01*
X101737075Y-30634903D01*
X101689000Y-30393214D01*
X101689000Y-30146786D01*
X101737075Y-29905097D01*
X101831377Y-29677431D01*
X101919865Y-29545000D01*
X101968285Y-29472534D01*
X102142534Y-29298285D01*
X102347429Y-29161378D01*
X102376482Y-29149344D01*
X102575097Y-29067075D01*
X102816786Y-29019000D01*
X103063214Y-29019000D01*
X103304903Y-29067075D01*
G37*
G36*
X92878000Y-31269000D02*
G01*
X91526000Y-31269000D01*
X91526000Y-30167000D01*
X92878000Y-30167000D01*
X92878000Y-31269000D01*
G37*
G36*
X107194012Y-29019000D02*
G01*
X107291689Y-29038429D01*
X107473678Y-29113811D01*
X107637463Y-29223249D01*
X107776751Y-29362537D01*
X107886189Y-29526322D01*
X107949485Y-29679133D01*
X107961571Y-29708312D01*
X108000000Y-29901507D01*
X108000000Y-30098493D01*
X107986373Y-30167000D01*
X107961571Y-30291689D01*
X107886189Y-30473678D01*
X107776751Y-30637463D01*
X107637463Y-30776751D01*
X107473678Y-30886189D01*
X107291689Y-30961571D01*
X107227290Y-30974381D01*
X107098493Y-31000000D01*
X106901507Y-31000000D01*
X106772710Y-30974381D01*
X106708311Y-30961571D01*
X106526322Y-30886189D01*
X106362537Y-30776751D01*
X106223249Y-30637463D01*
X106113811Y-30473678D01*
X106038429Y-30291689D01*
X106013627Y-30167000D01*
X106000000Y-30098493D01*
X106000000Y-29901507D01*
X106038429Y-29708312D01*
X106050515Y-29679133D01*
X106113811Y-29526322D01*
X106223249Y-29362537D01*
X106362537Y-29223249D01*
X106526322Y-29113811D01*
X106708311Y-29038429D01*
X106805988Y-29019000D01*
X106901507Y-29000000D01*
X107098493Y-29000000D01*
X107194012Y-29019000D01*
G37*
G36*
X119461000Y-30131000D02*
G01*
X114359000Y-30131000D01*
X114359000Y-26779000D01*
X119461000Y-26779000D01*
X119461000Y-30131000D01*
G37*
G36*
X54207000Y-30051000D02*
G01*
X52105000Y-30051000D01*
X52105000Y-27949000D01*
X54207000Y-27949000D01*
X54207000Y-30051000D01*
G37*
G36*
X43031000Y-30051000D02*
G01*
X40929000Y-30051000D01*
X40929000Y-27949000D01*
X43031000Y-27949000D01*
X43031000Y-30051000D01*
G37*
G36*
X77697022Y-28020590D02*
G01*
X77797681Y-28051125D01*
X77848012Y-28066392D01*
X77979660Y-28136760D01*
X77987164Y-28140771D01*
X78109133Y-28240867D01*
X78209229Y-28362835D01*
X78283608Y-28501987D01*
X78298875Y-28552318D01*
X78329410Y-28652977D01*
X78341000Y-28770655D01*
X78341000Y-29149344D01*
X78329410Y-29267022D01*
X78301667Y-29358479D01*
X78283608Y-29418013D01*
X78209229Y-29557165D01*
X78109133Y-29679133D01*
X77987165Y-29779229D01*
X77848013Y-29853608D01*
X77797682Y-29868875D01*
X77697023Y-29899410D01*
X77540000Y-29914875D01*
X77382978Y-29899410D01*
X77282319Y-29868875D01*
X77231988Y-29853608D01*
X77092836Y-29779229D01*
X76970867Y-29679133D01*
X76870771Y-29557165D01*
X76864269Y-29545000D01*
X76796392Y-29418013D01*
X76778333Y-29358479D01*
X76750590Y-29267023D01*
X76739000Y-29149345D01*
X76739000Y-28770656D01*
X76750590Y-28652978D01*
X76796392Y-28501989D01*
X76796392Y-28501988D01*
X76870771Y-28362836D01*
X76870772Y-28362835D01*
X76970867Y-28240867D01*
X77092835Y-28140771D01*
X77100339Y-28136760D01*
X77231987Y-28066392D01*
X77282318Y-28051125D01*
X77382977Y-28020590D01*
X77540000Y-28005125D01*
X77697022Y-28020590D01*
G37*
G36*
X82777022Y-28020590D02*
G01*
X82877681Y-28051125D01*
X82928012Y-28066392D01*
X83059660Y-28136760D01*
X83067164Y-28140771D01*
X83189133Y-28240867D01*
X83289229Y-28362835D01*
X83363608Y-28501987D01*
X83378875Y-28552318D01*
X83409410Y-28652977D01*
X83421000Y-28770655D01*
X83421000Y-29149344D01*
X83409410Y-29267022D01*
X83381667Y-29358479D01*
X83363608Y-29418013D01*
X83289229Y-29557165D01*
X83189133Y-29679133D01*
X83067165Y-29779229D01*
X82928013Y-29853608D01*
X82877682Y-29868875D01*
X82777023Y-29899410D01*
X82620000Y-29914875D01*
X82462978Y-29899410D01*
X82362319Y-29868875D01*
X82311988Y-29853608D01*
X82172836Y-29779229D01*
X82050867Y-29679133D01*
X81950771Y-29557165D01*
X81944269Y-29545000D01*
X81876392Y-29418013D01*
X81858333Y-29358479D01*
X81830590Y-29267023D01*
X81819000Y-29149345D01*
X81819000Y-28770656D01*
X81830590Y-28652978D01*
X81876392Y-28501989D01*
X81876392Y-28501988D01*
X81950771Y-28362836D01*
X81950772Y-28362835D01*
X82050867Y-28240867D01*
X82172835Y-28140771D01*
X82180339Y-28136760D01*
X82311987Y-28066392D01*
X82362318Y-28051125D01*
X82462977Y-28020590D01*
X82620000Y-28005125D01*
X82777022Y-28020590D01*
G37*
G36*
X85317022Y-28020590D02*
G01*
X85417681Y-28051125D01*
X85468012Y-28066392D01*
X85599660Y-28136760D01*
X85607164Y-28140771D01*
X85729133Y-28240867D01*
X85829229Y-28362835D01*
X85903608Y-28501987D01*
X85918875Y-28552318D01*
X85949410Y-28652977D01*
X85961000Y-28770655D01*
X85961000Y-29149344D01*
X85949410Y-29267022D01*
X85921667Y-29358479D01*
X85903608Y-29418013D01*
X85829229Y-29557165D01*
X85729133Y-29679133D01*
X85607165Y-29779229D01*
X85468013Y-29853608D01*
X85417682Y-29868875D01*
X85317023Y-29899410D01*
X85160000Y-29914875D01*
X85002978Y-29899410D01*
X84902319Y-29868875D01*
X84851988Y-29853608D01*
X84712836Y-29779229D01*
X84590867Y-29679133D01*
X84490771Y-29557165D01*
X84484269Y-29545000D01*
X84416392Y-29418013D01*
X84398333Y-29358479D01*
X84370590Y-29267023D01*
X84359000Y-29149345D01*
X84359000Y-28770656D01*
X84370590Y-28652978D01*
X84416392Y-28501989D01*
X84416392Y-28501988D01*
X84490771Y-28362836D01*
X84490772Y-28362835D01*
X84590867Y-28240867D01*
X84712835Y-28140771D01*
X84720339Y-28136760D01*
X84851987Y-28066392D01*
X84902318Y-28051125D01*
X85002977Y-28020590D01*
X85160000Y-28005125D01*
X85317022Y-28020590D01*
G37*
G36*
X87857022Y-28020590D02*
G01*
X87957681Y-28051125D01*
X88008012Y-28066392D01*
X88139660Y-28136760D01*
X88147164Y-28140771D01*
X88269133Y-28240867D01*
X88369229Y-28362835D01*
X88443608Y-28501987D01*
X88458875Y-28552318D01*
X88489410Y-28652977D01*
X88501000Y-28770655D01*
X88501000Y-29149344D01*
X88489410Y-29267022D01*
X88461667Y-29358479D01*
X88443608Y-29418013D01*
X88369229Y-29557165D01*
X88269133Y-29679133D01*
X88147165Y-29779229D01*
X88008013Y-29853608D01*
X87957682Y-29868875D01*
X87857023Y-29899410D01*
X87700000Y-29914875D01*
X87542978Y-29899410D01*
X87442319Y-29868875D01*
X87391988Y-29853608D01*
X87252836Y-29779229D01*
X87130867Y-29679133D01*
X87030771Y-29557165D01*
X87024269Y-29545000D01*
X86956392Y-29418013D01*
X86938333Y-29358479D01*
X86910590Y-29267023D01*
X86899000Y-29149345D01*
X86899000Y-28770656D01*
X86910590Y-28652978D01*
X86956392Y-28501989D01*
X86956392Y-28501988D01*
X87030771Y-28362836D01*
X87030772Y-28362835D01*
X87130867Y-28240867D01*
X87252835Y-28140771D01*
X87260339Y-28136760D01*
X87391987Y-28066392D01*
X87442318Y-28051125D01*
X87542977Y-28020590D01*
X87700000Y-28005125D01*
X87857022Y-28020590D01*
G37*
G36*
X80237022Y-28020590D02*
G01*
X80337681Y-28051125D01*
X80388012Y-28066392D01*
X80519660Y-28136760D01*
X80527164Y-28140771D01*
X80649133Y-28240867D01*
X80749229Y-28362835D01*
X80823608Y-28501987D01*
X80838875Y-28552318D01*
X80869410Y-28652977D01*
X80881000Y-28770655D01*
X80881000Y-29149344D01*
X80869410Y-29267022D01*
X80841667Y-29358479D01*
X80823608Y-29418013D01*
X80749229Y-29557165D01*
X80649133Y-29679133D01*
X80527165Y-29779229D01*
X80388013Y-29853608D01*
X80337682Y-29868875D01*
X80237023Y-29899410D01*
X80080000Y-29914875D01*
X79922978Y-29899410D01*
X79822319Y-29868875D01*
X79771988Y-29853608D01*
X79632836Y-29779229D01*
X79510867Y-29679133D01*
X79410771Y-29557165D01*
X79404269Y-29545000D01*
X79336392Y-29418013D01*
X79318333Y-29358479D01*
X79290590Y-29267023D01*
X79279000Y-29149345D01*
X79279000Y-28770656D01*
X79290590Y-28652978D01*
X79336392Y-28501989D01*
X79336392Y-28501988D01*
X79410771Y-28362836D01*
X79410772Y-28362835D01*
X79510867Y-28240867D01*
X79632835Y-28140771D01*
X79640339Y-28136760D01*
X79771987Y-28066392D01*
X79822318Y-28051125D01*
X79922977Y-28020590D01*
X80080000Y-28005125D01*
X80237022Y-28020590D01*
G37*
G36*
X75157022Y-28020590D02*
G01*
X75257681Y-28051125D01*
X75308012Y-28066392D01*
X75439660Y-28136760D01*
X75447164Y-28140771D01*
X75569133Y-28240867D01*
X75669229Y-28362835D01*
X75743608Y-28501987D01*
X75758875Y-28552318D01*
X75789410Y-28652977D01*
X75801000Y-28770655D01*
X75801000Y-29149344D01*
X75789410Y-29267022D01*
X75761667Y-29358479D01*
X75743608Y-29418013D01*
X75669229Y-29557165D01*
X75569133Y-29679133D01*
X75447165Y-29779229D01*
X75308013Y-29853608D01*
X75257682Y-29868875D01*
X75157023Y-29899410D01*
X75000000Y-29914875D01*
X74842978Y-29899410D01*
X74742319Y-29868875D01*
X74691988Y-29853608D01*
X74552836Y-29779229D01*
X74430867Y-29679133D01*
X74330771Y-29557165D01*
X74324269Y-29545000D01*
X74256392Y-29418013D01*
X74238333Y-29358479D01*
X74210590Y-29267023D01*
X74199000Y-29149345D01*
X74199000Y-28770656D01*
X74210590Y-28652978D01*
X74256392Y-28501989D01*
X74256392Y-28501988D01*
X74330771Y-28362836D01*
X74330772Y-28362835D01*
X74430867Y-28240867D01*
X74552835Y-28140771D01*
X74560339Y-28136760D01*
X74691987Y-28066392D01*
X74742318Y-28051125D01*
X74842977Y-28020590D01*
X75000000Y-28005125D01*
X75157022Y-28020590D01*
G37*
G36*
X72617022Y-28020590D02*
G01*
X72717681Y-28051125D01*
X72768012Y-28066392D01*
X72899660Y-28136760D01*
X72907164Y-28140771D01*
X73029133Y-28240867D01*
X73129229Y-28362835D01*
X73203608Y-28501987D01*
X73218875Y-28552318D01*
X73249410Y-28652977D01*
X73261000Y-28770655D01*
X73261000Y-29149344D01*
X73249410Y-29267022D01*
X73221667Y-29358479D01*
X73203608Y-29418013D01*
X73129229Y-29557165D01*
X73029133Y-29679133D01*
X72907165Y-29779229D01*
X72768013Y-29853608D01*
X72717682Y-29868875D01*
X72617023Y-29899410D01*
X72460000Y-29914875D01*
X72302978Y-29899410D01*
X72202319Y-29868875D01*
X72151988Y-29853608D01*
X72012836Y-29779229D01*
X71890867Y-29679133D01*
X71790771Y-29557165D01*
X71784269Y-29545000D01*
X71716392Y-29418013D01*
X71698333Y-29358479D01*
X71670590Y-29267023D01*
X71659000Y-29149345D01*
X71659000Y-28770656D01*
X71670590Y-28652978D01*
X71716392Y-28501989D01*
X71716392Y-28501988D01*
X71790771Y-28362836D01*
X71790772Y-28362835D01*
X71890867Y-28240867D01*
X72012835Y-28140771D01*
X72020339Y-28136760D01*
X72151987Y-28066392D01*
X72202318Y-28051125D01*
X72302977Y-28020590D01*
X72460000Y-28005125D01*
X72617022Y-28020590D01*
G37*
G36*
X70077022Y-28020590D02*
G01*
X70177681Y-28051125D01*
X70228012Y-28066392D01*
X70359660Y-28136760D01*
X70367164Y-28140771D01*
X70489133Y-28240867D01*
X70589229Y-28362835D01*
X70663608Y-28501987D01*
X70678875Y-28552318D01*
X70709410Y-28652977D01*
X70721000Y-28770655D01*
X70721000Y-29149344D01*
X70709410Y-29267022D01*
X70681667Y-29358479D01*
X70663608Y-29418013D01*
X70589229Y-29557165D01*
X70489133Y-29679133D01*
X70367165Y-29779229D01*
X70228013Y-29853608D01*
X70177682Y-29868875D01*
X70077023Y-29899410D01*
X69920000Y-29914875D01*
X69762978Y-29899410D01*
X69662319Y-29868875D01*
X69611988Y-29853608D01*
X69472836Y-29779229D01*
X69350867Y-29679133D01*
X69250771Y-29557165D01*
X69244269Y-29545000D01*
X69176392Y-29418013D01*
X69158333Y-29358479D01*
X69130590Y-29267023D01*
X69119000Y-29149345D01*
X69119000Y-28770656D01*
X69130590Y-28652978D01*
X69176392Y-28501989D01*
X69176392Y-28501988D01*
X69250771Y-28362836D01*
X69250772Y-28362835D01*
X69350867Y-28240867D01*
X69472835Y-28140771D01*
X69480339Y-28136760D01*
X69611987Y-28066392D01*
X69662318Y-28051125D01*
X69762977Y-28020590D01*
X69920000Y-28005125D01*
X70077022Y-28020590D01*
G37*
G36*
X67537022Y-28020590D02*
G01*
X67637681Y-28051125D01*
X67688012Y-28066392D01*
X67819660Y-28136760D01*
X67827164Y-28140771D01*
X67949133Y-28240867D01*
X68049229Y-28362835D01*
X68123608Y-28501987D01*
X68138875Y-28552318D01*
X68169410Y-28652977D01*
X68181000Y-28770655D01*
X68181000Y-29149344D01*
X68169410Y-29267022D01*
X68141667Y-29358479D01*
X68123608Y-29418013D01*
X68049229Y-29557165D01*
X67949133Y-29679133D01*
X67827165Y-29779229D01*
X67688013Y-29853608D01*
X67637682Y-29868875D01*
X67537023Y-29899410D01*
X67380000Y-29914875D01*
X67222978Y-29899410D01*
X67122319Y-29868875D01*
X67071988Y-29853608D01*
X66932836Y-29779229D01*
X66810867Y-29679133D01*
X66710771Y-29557165D01*
X66704269Y-29545000D01*
X66636392Y-29418013D01*
X66618333Y-29358479D01*
X66590590Y-29267023D01*
X66579000Y-29149345D01*
X66579000Y-28770656D01*
X66590590Y-28652978D01*
X66636392Y-28501989D01*
X66636392Y-28501988D01*
X66710771Y-28362836D01*
X66710772Y-28362835D01*
X66810867Y-28240867D01*
X66932835Y-28140771D01*
X66940339Y-28136760D01*
X67071987Y-28066392D01*
X67122318Y-28051125D01*
X67222977Y-28020590D01*
X67380000Y-28005125D01*
X67537022Y-28020590D01*
G37*
G36*
X64997022Y-28020590D02*
G01*
X65097681Y-28051125D01*
X65148012Y-28066392D01*
X65279660Y-28136760D01*
X65287164Y-28140771D01*
X65409133Y-28240867D01*
X65509229Y-28362835D01*
X65583608Y-28501987D01*
X65598875Y-28552318D01*
X65629410Y-28652977D01*
X65641000Y-28770655D01*
X65641000Y-29149344D01*
X65629410Y-29267022D01*
X65601667Y-29358479D01*
X65583608Y-29418013D01*
X65509229Y-29557165D01*
X65409133Y-29679133D01*
X65287165Y-29779229D01*
X65148013Y-29853608D01*
X65097682Y-29868875D01*
X64997023Y-29899410D01*
X64840000Y-29914875D01*
X64682978Y-29899410D01*
X64582319Y-29868875D01*
X64531988Y-29853608D01*
X64392836Y-29779229D01*
X64270867Y-29679133D01*
X64170771Y-29557165D01*
X64164269Y-29545000D01*
X64096392Y-29418013D01*
X64078333Y-29358479D01*
X64050590Y-29267023D01*
X64039000Y-29149345D01*
X64039000Y-28770656D01*
X64050590Y-28652978D01*
X64096392Y-28501989D01*
X64096392Y-28501988D01*
X64170771Y-28362836D01*
X64170772Y-28362835D01*
X64270867Y-28240867D01*
X64392835Y-28140771D01*
X64400339Y-28136760D01*
X64531987Y-28066392D01*
X64582318Y-28051125D01*
X64682977Y-28020590D01*
X64840000Y-28005125D01*
X64997022Y-28020590D01*
G37*
G36*
X62457022Y-28020590D02*
G01*
X62557681Y-28051125D01*
X62608012Y-28066392D01*
X62739660Y-28136760D01*
X62747164Y-28140771D01*
X62869133Y-28240867D01*
X62969229Y-28362835D01*
X63043608Y-28501987D01*
X63058875Y-28552318D01*
X63089410Y-28652977D01*
X63101000Y-28770655D01*
X63101000Y-29149344D01*
X63089410Y-29267022D01*
X63061667Y-29358479D01*
X63043608Y-29418013D01*
X62969229Y-29557165D01*
X62869133Y-29679133D01*
X62747165Y-29779229D01*
X62608013Y-29853608D01*
X62557682Y-29868875D01*
X62457023Y-29899410D01*
X62300000Y-29914875D01*
X62142978Y-29899410D01*
X62042319Y-29868875D01*
X61991988Y-29853608D01*
X61852836Y-29779229D01*
X61730867Y-29679133D01*
X61630771Y-29557165D01*
X61624269Y-29545000D01*
X61556392Y-29418013D01*
X61538333Y-29358479D01*
X61510590Y-29267023D01*
X61499000Y-29149345D01*
X61499000Y-28770656D01*
X61510590Y-28652978D01*
X61556392Y-28501989D01*
X61556392Y-28501988D01*
X61630771Y-28362836D01*
X61630772Y-28362835D01*
X61730867Y-28240867D01*
X61852835Y-28140771D01*
X61860339Y-28136760D01*
X61991987Y-28066392D01*
X62042318Y-28051125D01*
X62142977Y-28020590D01*
X62300000Y-28005125D01*
X62457022Y-28020590D01*
G37*
G36*
X96967000Y-29545000D02*
G01*
X95565000Y-29545000D01*
X95565000Y-28743000D01*
X96967000Y-28743000D01*
X96967000Y-29545000D01*
G37*
G36*
X94935000Y-29545000D02*
G01*
X93533000Y-29545000D01*
X93533000Y-28743000D01*
X94935000Y-28743000D01*
X94935000Y-29545000D01*
G37*
G36*
X122038585Y-26462802D02*
G01*
X122188410Y-26492604D01*
X122470674Y-26609521D01*
X122724705Y-26779259D01*
X122940741Y-26995295D01*
X123110479Y-27249326D01*
X123203407Y-27473676D01*
X123227396Y-27531591D01*
X123276162Y-27776751D01*
X123287000Y-27831240D01*
X123287000Y-28136760D01*
X123227396Y-28436410D01*
X123110479Y-28718674D01*
X122940741Y-28972705D01*
X122724705Y-29188741D01*
X122470674Y-29358479D01*
X122188410Y-29475396D01*
X122038585Y-29505198D01*
X121888761Y-29535000D01*
X121583239Y-29535000D01*
X121433415Y-29505198D01*
X121283590Y-29475396D01*
X121001326Y-29358479D01*
X120747295Y-29188741D01*
X120531259Y-28972705D01*
X120361521Y-28718674D01*
X120244604Y-28436410D01*
X120185000Y-28136760D01*
X120185000Y-27831240D01*
X120195839Y-27776751D01*
X120244604Y-27531591D01*
X120268593Y-27473676D01*
X120361521Y-27249326D01*
X120531259Y-26995295D01*
X120747295Y-26779259D01*
X121001326Y-26609521D01*
X121283590Y-26492604D01*
X121433415Y-26462802D01*
X121583239Y-26433000D01*
X121888761Y-26433000D01*
X122038585Y-26462802D01*
G37*
G36*
X92878000Y-29269000D02*
G01*
X91526000Y-29269000D01*
X91526000Y-28167000D01*
X92878000Y-28167000D01*
X92878000Y-29269000D01*
G37*
G36*
X29512585Y-26164802D02*
G01*
X29662410Y-26194604D01*
X29944674Y-26311521D01*
X30198705Y-26481259D01*
X30414741Y-26697295D01*
X30584479Y-26951326D01*
X30701396Y-27233590D01*
X30716794Y-27311000D01*
X30749153Y-27473678D01*
X30761000Y-27533240D01*
X30761000Y-27838760D01*
X30701396Y-28138410D01*
X30584479Y-28420674D01*
X30414741Y-28674705D01*
X30198705Y-28890741D01*
X29944674Y-29060479D01*
X29662410Y-29177396D01*
X29512585Y-29207198D01*
X29362761Y-29237000D01*
X29057239Y-29237000D01*
X28907415Y-29207198D01*
X28757590Y-29177396D01*
X28475326Y-29060479D01*
X28221295Y-28890741D01*
X28005259Y-28674705D01*
X27835521Y-28420674D01*
X27718604Y-28138410D01*
X27659000Y-27838760D01*
X27659000Y-27533240D01*
X27670848Y-27473678D01*
X27703206Y-27311000D01*
X27718604Y-27233590D01*
X27835521Y-26951326D01*
X28005259Y-26697295D01*
X28221295Y-26481259D01*
X28475326Y-26311521D01*
X28757590Y-26194604D01*
X28907415Y-26164802D01*
X29057239Y-26135000D01*
X29362761Y-26135000D01*
X29512585Y-26164802D01*
G37*
G36*
X59227290Y-26025619D02*
G01*
X59291689Y-26038429D01*
X59473678Y-26113811D01*
X59637463Y-26223249D01*
X59776751Y-26362537D01*
X59886189Y-26526322D01*
X59957008Y-26697295D01*
X59961571Y-26708312D01*
X59996120Y-26882000D01*
X60000000Y-26901509D01*
X60000000Y-27098491D01*
X59961571Y-27291689D01*
X59886189Y-27473678D01*
X59776751Y-27637463D01*
X59637463Y-27776751D01*
X59473678Y-27886189D01*
X59291689Y-27961571D01*
X59227290Y-27974381D01*
X59098493Y-28000000D01*
X58901507Y-28000000D01*
X58772710Y-27974381D01*
X58708311Y-27961571D01*
X58526322Y-27886189D01*
X58362537Y-27776751D01*
X58223249Y-27637463D01*
X58113811Y-27473678D01*
X58038429Y-27291689D01*
X58000000Y-27098491D01*
X58000000Y-26901509D01*
X58003881Y-26882000D01*
X58038429Y-26708312D01*
X58042992Y-26697295D01*
X58113811Y-26526322D01*
X58223249Y-26362537D01*
X58362537Y-26223249D01*
X58526322Y-26113811D01*
X58708311Y-26038429D01*
X58772710Y-26025619D01*
X58901507Y-26000000D01*
X59098493Y-26000000D01*
X59227290Y-26025619D01*
G37*
G36*
X94935000Y-27645000D02*
G01*
X93533000Y-27645000D01*
X93533000Y-26843000D01*
X94935000Y-26843000D01*
X94935000Y-27645000D01*
G37*
G36*
X96967000Y-27645000D02*
G01*
X95565000Y-27645000D01*
X95565000Y-26843000D01*
X96967000Y-26843000D01*
X96967000Y-27645000D01*
G37*
G36*
X78829000Y-27311000D02*
G01*
X77727000Y-27311000D01*
X77727000Y-25609000D01*
X78829000Y-25609000D01*
X78829000Y-27311000D01*
G37*
G36*
X75829000Y-27311000D02*
G01*
X74727000Y-27311000D01*
X74727000Y-25609000D01*
X75829000Y-25609000D01*
X75829000Y-27311000D01*
G37*
G36*
X73241000Y-27311000D02*
G01*
X72139000Y-27311000D01*
X72139000Y-25609000D01*
X73241000Y-25609000D01*
X73241000Y-27311000D01*
G37*
G36*
X70241000Y-27311000D02*
G01*
X69139000Y-27311000D01*
X69139000Y-25609000D01*
X70241000Y-25609000D01*
X70241000Y-27311000D01*
G37*
G36*
X37111000Y-26882000D02*
G01*
X36009000Y-26882000D01*
X36009000Y-25530000D01*
X37111000Y-25530000D01*
X37111000Y-26882000D01*
G37*
G36*
X35111000Y-26882000D02*
G01*
X34009000Y-26882000D01*
X34009000Y-25530000D01*
X35111000Y-25530000D01*
X35111000Y-26882000D01*
G37*
M02*
