G04 #@! TF.GenerationSoftware,KiCad,Pcbnew,5.1.5+dfsg1-2build2*
G04 #@! TF.CreationDate,2021-11-28T21:57:44+10:30*
G04 #@! TF.ProjectId,tda8954-btl,74646138-3935-4342-9d62-746c2e6b6963,rev?*
G04 #@! TF.SameCoordinates,Original*
G04 #@! TF.FileFunction,Copper,L1,Top*
G04 #@! TF.FilePolarity,Positive*
%FSLAX46Y46*%
G04 Gerber Fmt 4.6, Leading zero omitted, Abs format (unit mm)*
G04 Created by KiCad (PCBNEW 5.1.5+dfsg1-2build2) date 2021-11-28 21:57:44*
%MOMM*%
%LPD*%
G04 APERTURE LIST*
%ADD10R,1.300000X0.700000*%
%ADD11R,0.700000X1.300000*%
%ADD12C,3.000000*%
%ADD13C,1.600000*%
%ADD14R,2.000000X2.000000*%
%ADD15C,2.000000*%
%ADD16C,1.524000*%
%ADD17C,1.000000*%
%ADD18R,1.000000X1.250000*%
%ADD19R,1.250000X1.000000*%
%ADD20C,2.400000*%
%ADD21R,1.000000X1.600000*%
%ADD22R,2.400000X2.400000*%
%ADD23R,1.200000X1.200000*%
%ADD24R,1.700000X1.300000*%
%ADD25O,1.998980X1.998980*%
%ADD26R,1.998980X1.998980*%
%ADD27C,2.500000*%
%ADD28R,2.500000X2.500000*%
%ADD29O,1.700000X1.700000*%
%ADD30R,1.700000X1.700000*%
%ADD31R,5.000000X3.250000*%
%ADD32R,0.800000X0.900000*%
%ADD33O,2.400000X2.400000*%
%ADD34O,1.600000X1.600000*%
%ADD35R,1.600000X1.600000*%
%ADD36C,0.800000*%
%ADD37C,3.000000*%
%ADD38C,0.500000*%
%ADD39C,1.000000*%
%ADD40C,0.250000*%
%ADD41C,2.000000*%
%ADD42C,2.500000*%
G04 APERTURE END LIST*
D10*
X94234000Y-29144000D03*
X94234000Y-27244000D03*
D11*
X96454000Y-31750000D03*
X94554000Y-31750000D03*
D12*
X29210000Y-27686000D03*
X29210000Y-32766000D03*
X32328000Y-59734000D03*
X27248000Y-59734000D03*
X32328000Y-50844000D03*
X27248000Y-50844000D03*
X32328000Y-41954000D03*
X27248000Y-41954000D03*
X91510000Y-69640000D03*
X91510000Y-64560000D03*
X113100000Y-69640000D03*
X113100000Y-64560000D03*
X121736000Y-40176000D03*
X121736000Y-27984000D03*
X121736000Y-57702000D03*
X121736000Y-45510000D03*
D13*
X64332000Y-52542000D03*
X64332000Y-47542000D03*
D14*
X41980000Y-29000000D03*
D15*
X41980000Y-34000000D03*
D16*
X88970000Y-34040000D03*
X87700000Y-28960000D03*
X86430000Y-34040000D03*
X85160000Y-28960000D03*
X83890000Y-34040000D03*
X82620000Y-28960000D03*
X81350000Y-34040000D03*
X80080000Y-28960000D03*
X78810000Y-34040000D03*
X77540000Y-28960000D03*
X76270000Y-34040000D03*
X75000000Y-28960000D03*
X73730000Y-34040000D03*
X72460000Y-28960000D03*
X71190000Y-34040000D03*
X69920000Y-28960000D03*
X68650000Y-34040000D03*
X67380000Y-28960000D03*
X66110000Y-34040000D03*
X64840000Y-28960000D03*
X63570000Y-34040000D03*
X62300000Y-28960000D03*
X61030000Y-34040000D03*
D17*
X59000000Y-27000000D03*
X107000000Y-30000000D03*
X46000000Y-69000000D03*
X113000000Y-61000000D03*
D18*
X34560000Y-26206000D03*
X36560000Y-26206000D03*
D19*
X75000000Y-36382000D03*
X75000000Y-38382000D03*
X68396000Y-38382000D03*
X68396000Y-36382000D03*
X94234000Y-35846000D03*
X94234000Y-37846000D03*
X92202000Y-32782000D03*
X92202000Y-34782000D03*
D20*
X102940000Y-64320000D03*
X102940000Y-49320000D03*
D19*
X98241000Y-69370000D03*
X98241000Y-67370000D03*
D21*
X72690000Y-26460000D03*
X69690000Y-26460000D03*
X75278000Y-26460000D03*
X78278000Y-26460000D03*
D13*
X68650000Y-47542000D03*
X68650000Y-52542000D03*
D20*
X102940000Y-30270000D03*
X102940000Y-45270000D03*
D18*
X93812000Y-51352000D03*
X95812000Y-51352000D03*
D19*
X96082000Y-37846000D03*
X96082000Y-35846000D03*
X92202000Y-28718000D03*
X92202000Y-30718000D03*
X71952000Y-50828000D03*
X71952000Y-48828000D03*
X77794000Y-50828000D03*
X77794000Y-48828000D03*
D20*
X42545000Y-53895000D03*
D22*
X42545000Y-48895000D03*
X55245000Y-41910000D03*
D20*
X55245000Y-46910000D03*
D19*
X79318000Y-38382000D03*
X79318000Y-36382000D03*
X70612000Y-36382000D03*
X70612000Y-38382000D03*
D18*
X85430000Y-36620000D03*
X87430000Y-36620000D03*
X85430000Y-38398000D03*
X87430000Y-38398000D03*
X87430000Y-40176000D03*
X85430000Y-40176000D03*
D22*
X55245000Y-55880000D03*
D20*
X55245000Y-60880000D03*
X42545000Y-67865000D03*
D22*
X42545000Y-62865000D03*
D15*
X53156000Y-34000000D03*
D14*
X53156000Y-29000000D03*
D21*
X76040000Y-31540000D03*
X79040000Y-31540000D03*
X70960000Y-31540000D03*
X73960000Y-31540000D03*
D19*
X72968000Y-36382000D03*
X72968000Y-38382000D03*
X77032000Y-38382000D03*
X77032000Y-36382000D03*
D18*
X81366000Y-40176000D03*
X83366000Y-40176000D03*
X83366000Y-38398000D03*
X81366000Y-38398000D03*
X81366000Y-36620000D03*
X83366000Y-36620000D03*
X94320000Y-40938000D03*
X96320000Y-40938000D03*
D23*
X78810000Y-65914000D03*
X78810000Y-63714000D03*
D24*
X68127000Y-60496000D03*
X68127000Y-56996000D03*
D23*
X85668000Y-63714000D03*
X85668000Y-65914000D03*
X82366000Y-65914000D03*
X82366000Y-63714000D03*
D25*
X65094000Y-67608000D03*
D26*
X62554000Y-67608000D03*
X71174000Y-67608000D03*
D25*
X73714000Y-67608000D03*
D27*
X29788000Y-55764000D03*
D28*
X29788000Y-45764000D03*
D27*
X29788000Y-50764000D03*
D29*
X65024000Y-59944000D03*
D30*
X65024000Y-57404000D03*
D31*
X116910000Y-45981000D03*
X116910000Y-57231000D03*
X116910000Y-39705000D03*
X116910000Y-28455000D03*
D32*
X87192000Y-48828000D03*
X88142000Y-50828000D03*
X86242000Y-50828000D03*
X82620000Y-48828000D03*
X83570000Y-50828000D03*
X81670000Y-50828000D03*
X93608000Y-48034000D03*
X95508000Y-48034000D03*
X94558000Y-46034000D03*
D11*
X94554000Y-33782000D03*
X96454000Y-33782000D03*
D33*
X100654000Y-69386000D03*
D20*
X105734000Y-69386000D03*
D11*
X62742000Y-31540000D03*
X60842000Y-31540000D03*
X64144000Y-31540000D03*
X66044000Y-31540000D03*
D20*
X94050000Y-55162000D03*
D33*
X94050000Y-60242000D03*
D10*
X96266000Y-29144000D03*
X96266000Y-27244000D03*
X87192000Y-42528000D03*
X87192000Y-44428000D03*
X85160000Y-44428000D03*
X85160000Y-42528000D03*
X88462000Y-54334000D03*
X88462000Y-52434000D03*
X83890000Y-54334000D03*
X83890000Y-52434000D03*
X92272000Y-42528000D03*
X92272000Y-44428000D03*
X79826000Y-48878000D03*
X79826000Y-50778000D03*
X85922000Y-54334000D03*
X85922000Y-52434000D03*
X81350000Y-52434000D03*
X81350000Y-54334000D03*
X92272000Y-41126000D03*
X92272000Y-39226000D03*
X68269000Y-63986000D03*
X68269000Y-62086000D03*
X94558000Y-42528000D03*
X94558000Y-44428000D03*
X85668000Y-58276000D03*
X85668000Y-60176000D03*
X82366000Y-60176000D03*
X82366000Y-58276000D03*
X79572000Y-42528000D03*
X79572000Y-44428000D03*
X90240000Y-50778000D03*
X90240000Y-48878000D03*
X81604000Y-44428000D03*
X81604000Y-42528000D03*
D32*
X74050000Y-50828000D03*
X75950000Y-50828000D03*
X75000000Y-48828000D03*
D34*
X78556000Y-57448000D03*
X70936000Y-59988000D03*
X78556000Y-59988000D03*
D35*
X70936000Y-57448000D03*
D17*
X66618002Y-37382000D03*
X95123000Y-39116000D03*
X73730000Y-48812000D03*
X83382000Y-44958000D03*
X92202000Y-31750000D03*
X98622000Y-64814000D03*
X89224000Y-42208000D03*
X83312000Y-42208000D03*
X98114000Y-42208000D03*
X71698000Y-41446000D03*
X78302000Y-41446004D03*
X75381000Y-62655000D03*
D36*
X80080010Y-67100000D03*
X90170000Y-52324000D03*
X61538000Y-54436990D03*
X85922006Y-55670000D03*
X81350000Y-55670000D03*
X60776000Y-55416000D03*
X91947992Y-36576000D03*
X70936000Y-46526000D03*
X97536000Y-30988000D03*
D37*
X29788000Y-55764000D02*
X29788000Y-57531766D01*
X29788000Y-57531766D02*
X29788000Y-59734000D01*
X29788000Y-59734000D02*
X32385000Y-59690000D01*
X27305000Y-59690000D02*
X29788000Y-59734000D01*
D38*
X76548000Y-33762000D02*
X76270000Y-34040000D01*
X76040000Y-33810000D02*
X76270000Y-34040000D01*
X76040000Y-31540000D02*
X76040000Y-33810000D01*
X72968000Y-34802000D02*
X73730000Y-34040000D01*
X72968000Y-36382000D02*
X72968000Y-34802000D01*
X77032000Y-34802000D02*
X76270000Y-34040000D01*
X77032000Y-36382000D02*
X77032000Y-34802000D01*
X75032000Y-38382000D02*
X77032000Y-36382000D01*
X75000000Y-38382000D02*
X75032000Y-38382000D01*
X79572000Y-44428000D02*
X81604000Y-44428000D01*
X66618002Y-37729002D02*
X66618002Y-37382000D01*
X68396000Y-38382000D02*
X67271000Y-38382000D01*
X67271000Y-38382000D02*
X66618002Y-37729002D01*
X75000000Y-40684000D02*
X75000000Y-38382000D01*
X78744000Y-44428000D02*
X75000000Y-40684000D01*
X79572000Y-44428000D02*
X78744000Y-44428000D01*
X73984000Y-33786000D02*
X73730000Y-34040000D01*
X73984000Y-31564000D02*
X73984000Y-33786000D01*
X73960000Y-31540000D02*
X73984000Y-31564000D01*
D39*
X94234000Y-37846000D02*
X95012000Y-37846000D01*
X95012000Y-37846000D02*
X96082000Y-37846000D01*
X95123000Y-37957000D02*
X95123000Y-39116000D01*
X95012000Y-37846000D02*
X95123000Y-37957000D01*
X94554000Y-31750000D02*
X94554000Y-33782000D01*
X93077000Y-34782000D02*
X92202000Y-34782000D01*
X93692000Y-34782000D02*
X93077000Y-34782000D01*
X93692000Y-34644000D02*
X94554000Y-33782000D01*
X93692000Y-34782000D02*
X93692000Y-34644000D01*
X94234000Y-35324000D02*
X94234000Y-35846000D01*
X93692000Y-34782000D02*
X94234000Y-35324000D01*
D37*
X29744000Y-41910000D02*
X29744000Y-45720000D01*
X27305000Y-41910000D02*
X29744000Y-41910000D01*
X29744000Y-45720000D02*
X29788000Y-45764000D01*
X29744000Y-41910000D02*
X32385000Y-41910000D01*
X47524000Y-41910000D02*
X47524000Y-29927000D01*
X47524000Y-29927000D02*
X48451000Y-29000000D01*
X47524000Y-41910000D02*
X55245000Y-41910000D01*
X42545000Y-42063000D02*
X42698000Y-41910000D01*
X42545000Y-48895000D02*
X42545000Y-42063000D01*
D38*
X87192000Y-44428000D02*
X85160000Y-44428000D01*
D39*
X71968000Y-48812000D02*
X71952000Y-48828000D01*
D38*
X73730000Y-48812000D02*
X71968000Y-48812000D01*
D39*
X74984000Y-48812000D02*
X75000000Y-48828000D01*
D38*
X73730000Y-48812000D02*
X74984000Y-48812000D01*
X80080000Y-30397000D02*
X80080000Y-28960000D01*
X79040000Y-31437000D02*
X80080000Y-30397000D01*
X79040000Y-31540000D02*
X79040000Y-31437000D01*
D37*
X48451000Y-29000000D02*
X53156000Y-29000000D01*
X45330000Y-41910000D02*
X47524000Y-41910000D01*
X32385000Y-41910000D02*
X45330000Y-41910000D01*
D38*
X85414000Y-44428000D02*
X84884000Y-44958000D01*
X84089106Y-44958000D02*
X83382000Y-44958000D01*
X84884000Y-44958000D02*
X84089106Y-44958000D01*
D37*
X32385000Y-36957000D02*
X32385000Y-41910000D01*
X40342000Y-29000000D02*
X32385000Y-36957000D01*
X48451000Y-29000000D02*
X40342000Y-29000000D01*
D39*
X92202000Y-32782000D02*
X92202000Y-31750000D01*
X92202000Y-31750000D02*
X92202000Y-30718000D01*
D38*
X70612000Y-36182000D02*
X70612000Y-36382000D01*
X69920000Y-32683000D02*
X69920000Y-35490000D01*
X70960000Y-31437000D02*
X70960000Y-31643000D01*
X69920000Y-30397000D02*
X70960000Y-31437000D01*
X69920000Y-35490000D02*
X70612000Y-36182000D01*
X70960000Y-31643000D02*
X69920000Y-32683000D01*
X69920000Y-28960000D02*
X69920000Y-30397000D01*
X79064000Y-31794000D02*
X79040000Y-31794000D01*
X80080000Y-32810000D02*
X79064000Y-31794000D01*
X80080000Y-35490000D02*
X80080000Y-32810000D01*
X79318000Y-36252000D02*
X80080000Y-35490000D01*
X79040000Y-31794000D02*
X79294000Y-31540000D01*
X79318000Y-36382000D02*
X79318000Y-36252000D01*
D37*
X32305000Y-50800000D02*
X32385000Y-50720000D01*
X27305000Y-50800000D02*
X32305000Y-50800000D01*
X42545000Y-53895000D02*
X42545000Y-62865000D01*
D38*
X87430000Y-36620000D02*
X87430000Y-38398000D01*
X87430000Y-38398000D02*
X87430000Y-40176000D01*
D39*
X83366000Y-40176000D02*
X83366000Y-38398000D01*
X83366000Y-38398000D02*
X83366000Y-36620000D01*
X83890000Y-36096000D02*
X83890000Y-34040000D01*
X83366000Y-36620000D02*
X83890000Y-36096000D01*
X87430000Y-40176000D02*
X87430000Y-40414000D01*
X87430000Y-40414000D02*
X89224000Y-42208000D01*
D38*
X71952000Y-50828000D02*
X74050000Y-50828000D01*
X96844000Y-40938000D02*
X98114000Y-42208000D01*
X96320000Y-40938000D02*
X96844000Y-40938000D01*
X98114000Y-45428000D02*
X98114000Y-42208000D01*
X95508000Y-48034000D02*
X98114000Y-45428000D01*
X74050000Y-50828000D02*
X74050000Y-50778000D01*
X74050000Y-51778000D02*
X74640000Y-52368000D01*
X74050000Y-50828000D02*
X74050000Y-51778000D01*
X77794000Y-51828000D02*
X77794000Y-50828000D01*
X77254000Y-52368000D02*
X77794000Y-51828000D01*
X74640000Y-52368000D02*
X77254000Y-52368000D01*
X82366000Y-65914000D02*
X85668000Y-65914000D01*
X77032000Y-38382000D02*
X77032000Y-40176004D01*
X77032000Y-40176004D02*
X78302000Y-41446004D01*
X70428000Y-40176000D02*
X70428000Y-38636000D01*
X71698000Y-41446000D02*
X70428000Y-40176000D01*
X72968000Y-40176000D02*
X71698000Y-41446000D01*
X72968000Y-38382000D02*
X72968000Y-40176000D01*
X71952000Y-50971000D02*
X71952000Y-50828000D01*
X75381000Y-54400000D02*
X71952000Y-50971000D01*
X75381000Y-62655000D02*
X75381000Y-54400000D01*
D37*
X55245000Y-55880000D02*
X55245000Y-46910000D01*
X42545000Y-53895000D02*
X55172000Y-53895000D01*
D39*
X97844000Y-49320000D02*
X102940000Y-49320000D01*
X95812000Y-51352000D02*
X97844000Y-49320000D01*
X98241000Y-65195000D02*
X98622000Y-64814000D01*
X98241000Y-67370000D02*
X98241000Y-65195000D01*
D37*
X35480000Y-53895000D02*
X42545000Y-53895000D01*
X32385000Y-50800000D02*
X35480000Y-53895000D01*
D39*
X83366000Y-42154000D02*
X83312000Y-42208000D01*
X83366000Y-40176000D02*
X83366000Y-42154000D01*
X58236000Y-39442990D02*
X58236000Y-43919000D01*
X56966000Y-38172990D02*
X58236000Y-39442990D01*
X56966000Y-28365000D02*
X56966000Y-38172990D01*
X56444999Y-45710001D02*
X55245000Y-46910000D01*
X58236000Y-43919000D02*
X56444999Y-45710001D01*
X54807000Y-26206000D02*
X56966000Y-28365000D01*
X36560000Y-26206000D02*
X54807000Y-26206000D01*
D38*
X81688000Y-65914000D02*
X82366000Y-65914000D01*
X80772000Y-64998000D02*
X81688000Y-65914000D01*
X78556000Y-60014000D02*
X80772000Y-62230000D01*
X80772000Y-62230000D02*
X80772000Y-64998000D01*
X78556000Y-59988000D02*
X78556000Y-60014000D01*
X78302000Y-41332000D02*
X78302000Y-41446004D01*
X79318000Y-40316000D02*
X78302000Y-41332000D01*
X79318000Y-38382000D02*
X79318000Y-40316000D01*
D40*
X100638000Y-69370000D02*
X100654000Y-69386000D01*
D39*
X98241000Y-69370000D02*
X100638000Y-69370000D01*
D40*
X62554000Y-54320000D02*
X64332000Y-52542000D01*
X62554000Y-67608000D02*
X62554000Y-54320000D01*
X65024000Y-56168000D02*
X68650000Y-52542000D01*
X65024000Y-57404000D02*
X65024000Y-56168000D01*
X63924000Y-57404000D02*
X65024000Y-57404000D01*
X63246000Y-58082000D02*
X63924000Y-57404000D01*
X63246000Y-65024000D02*
X63246000Y-58082000D01*
X65094000Y-66872000D02*
X63246000Y-65024000D01*
X65094000Y-67608000D02*
X65094000Y-66872000D01*
D39*
X93796000Y-51368000D02*
X93812000Y-51352000D01*
X93796000Y-54908000D02*
X93796000Y-51368000D01*
X94050000Y-55162000D02*
X93796000Y-54908000D01*
X96266000Y-29144000D02*
X94234000Y-29144000D01*
X92218000Y-28702000D02*
X92202000Y-28718000D01*
X92964000Y-28702000D02*
X92218000Y-28702000D01*
X93406000Y-29144000D02*
X92964000Y-28702000D01*
X94234000Y-29144000D02*
X93406000Y-29144000D01*
X97758000Y-35846000D02*
X96082000Y-35846000D01*
X99314000Y-34290000D02*
X97758000Y-35846000D01*
X99314000Y-30480000D02*
X99314000Y-34290000D01*
X97978000Y-29144000D02*
X99314000Y-30480000D01*
X96266000Y-29144000D02*
X97978000Y-29144000D01*
D38*
X75950000Y-50672000D02*
X77794000Y-48828000D01*
X75950000Y-50828000D02*
X75950000Y-50672000D01*
X92526000Y-45510000D02*
X92526000Y-44428000D01*
X77794000Y-48812000D02*
X79064000Y-47542000D01*
X90494000Y-47542000D02*
X92526000Y-45510000D01*
X77794000Y-48828000D02*
X77794000Y-48812000D01*
X77844000Y-48878000D02*
X77794000Y-48828000D01*
X79826000Y-48878000D02*
X77844000Y-48878000D01*
X79064000Y-47542000D02*
X83890000Y-47542000D01*
X88142000Y-50828000D02*
X88142000Y-52368000D01*
X87446000Y-47542000D02*
X90494000Y-47542000D01*
X83890000Y-47542000D02*
X87446000Y-47542000D01*
X83570000Y-50828000D02*
X83570000Y-52246000D01*
X87954000Y-47542000D02*
X87700000Y-47542000D01*
X88462000Y-49828000D02*
X88462000Y-47542000D01*
X88208000Y-50082000D02*
X88462000Y-49828000D01*
X88208000Y-50762000D02*
X88208000Y-50082000D01*
X88142000Y-50828000D02*
X88208000Y-50762000D01*
X83890000Y-49828000D02*
X83890000Y-47542000D01*
X83570000Y-50148000D02*
X83890000Y-49828000D01*
X83570000Y-50828000D02*
X83570000Y-50148000D01*
X85430000Y-36620000D02*
X85430000Y-38398000D01*
X85430000Y-38398000D02*
X85430000Y-40176000D01*
X85430000Y-36620000D02*
X85430000Y-36128000D01*
X85430000Y-35366000D02*
X85430000Y-36620000D01*
X85160000Y-35096000D02*
X85430000Y-35366000D01*
X85160000Y-28960000D02*
X85160000Y-35096000D01*
X85160000Y-42528000D02*
X87192000Y-42528000D01*
X85414000Y-40192000D02*
X85430000Y-40176000D01*
X85414000Y-42528000D02*
X85414000Y-40192000D01*
X81366000Y-36620000D02*
X81366000Y-38398000D01*
X81366000Y-38398000D02*
X81366000Y-40176000D01*
X79572000Y-42528000D02*
X81604000Y-42528000D01*
X81366000Y-42290000D02*
X81604000Y-42528000D01*
X81366000Y-40176000D02*
X81366000Y-42290000D01*
X81366000Y-36096000D02*
X81366000Y-36620000D01*
X82620000Y-34842000D02*
X81366000Y-36096000D01*
X82620000Y-28960000D02*
X82620000Y-34842000D01*
D40*
X94132000Y-41126000D02*
X94320000Y-40938000D01*
X92526000Y-41126000D02*
X94132000Y-41126000D01*
X94558000Y-41176000D02*
X94320000Y-40938000D01*
X94558000Y-42528000D02*
X94558000Y-41176000D01*
X92202000Y-41126000D02*
X92202000Y-42528000D01*
X78810000Y-65914000D02*
X78810000Y-66764000D01*
X79514325Y-67100000D02*
X80080010Y-67100000D01*
X78810000Y-66764000D02*
X79146000Y-67100000D01*
X79146000Y-67100000D02*
X79514325Y-67100000D01*
X90170000Y-50848000D02*
X90240000Y-50778000D01*
X90170000Y-52324000D02*
X90170000Y-50848000D01*
X78810000Y-62864000D02*
X76569000Y-60623000D01*
X78810000Y-63714000D02*
X78810000Y-62864000D01*
X79826000Y-51378000D02*
X79826000Y-50778000D01*
X76569000Y-54635000D02*
X79826000Y-51378000D01*
X76569000Y-60623000D02*
X76569000Y-54635000D01*
X68269000Y-60638000D02*
X68127000Y-60496000D01*
X68269000Y-62086000D02*
X68269000Y-60638000D01*
X70484000Y-56996000D02*
X70936000Y-57448000D01*
X68000000Y-56996000D02*
X70484000Y-56996000D01*
X85668000Y-62864000D02*
X85668000Y-60176000D01*
X85668000Y-63714000D02*
X85668000Y-62864000D01*
X82366000Y-60176000D02*
X82366000Y-63714000D01*
X68269000Y-64586000D02*
X68269000Y-63986000D01*
X68269000Y-65825490D02*
X68269000Y-64586000D01*
X69924510Y-67608000D02*
X68142000Y-65825490D01*
X71174000Y-67608000D02*
X69924510Y-67608000D01*
X73714000Y-62766000D02*
X73714000Y-67608000D01*
X70936000Y-59988000D02*
X73714000Y-62766000D01*
X86568000Y-58276000D02*
X85668000Y-58276000D01*
X89732000Y-55112000D02*
X86568000Y-58276000D01*
X89732000Y-53892000D02*
X89732000Y-55112000D01*
X89224000Y-53384000D02*
X89732000Y-53892000D01*
X87192000Y-53130000D02*
X87446000Y-53384000D01*
X87446000Y-53384000D02*
X89224000Y-53384000D01*
X87192000Y-48828000D02*
X87192000Y-53130000D01*
X85988000Y-52368000D02*
X85922000Y-52434000D01*
X86242000Y-50828000D02*
X86242000Y-52368000D01*
X81466000Y-58276000D02*
X82366000Y-58276000D01*
X80080000Y-53892000D02*
X80080000Y-56890000D01*
X80588000Y-53384000D02*
X80080000Y-53892000D01*
X80080000Y-56890000D02*
X81466000Y-58276000D01*
X82366000Y-53384000D02*
X80588000Y-53384000D01*
X82620000Y-53130000D02*
X82366000Y-53384000D01*
X82620000Y-48828000D02*
X82620000Y-53130000D01*
X81670000Y-52114000D02*
X81350000Y-52434000D01*
X81670000Y-50828000D02*
X81670000Y-52114000D01*
X90240000Y-48878000D02*
X91444000Y-48878000D01*
X92288000Y-48034000D02*
X93608000Y-48034000D01*
X91444000Y-48878000D02*
X92288000Y-48034000D01*
X94558000Y-44428000D02*
X94558000Y-46034000D01*
X62742000Y-31540000D02*
X64144000Y-31540000D01*
X85922000Y-54334000D02*
X87954000Y-54334000D01*
X85922006Y-54334006D02*
X85922006Y-55670000D01*
X85922000Y-54334000D02*
X85922006Y-54334006D01*
X61538000Y-53871305D02*
X61538000Y-54436990D01*
X61538000Y-40176000D02*
X61538000Y-53871305D01*
X63356000Y-27476000D02*
X61409590Y-27476000D01*
X58547990Y-37185990D02*
X61538000Y-40176000D01*
X64840000Y-28960000D02*
X63356000Y-27476000D01*
X58547990Y-30337600D02*
X58547990Y-37185990D01*
X61409590Y-27476000D02*
X58547990Y-30337600D01*
X81350000Y-54334000D02*
X83382000Y-54334000D01*
X81350000Y-55670000D02*
X81350000Y-54334000D01*
X60776000Y-54850315D02*
X60776000Y-55416000D01*
X67380000Y-28960000D02*
X65445989Y-27025989D01*
X65445989Y-27025989D02*
X61223190Y-27025989D01*
X60776000Y-40176000D02*
X60776000Y-54850315D01*
X58097979Y-30151200D02*
X58097979Y-37497979D01*
X58097979Y-37497979D02*
X60776000Y-40176000D01*
X61223190Y-27025989D02*
X58097979Y-30151200D01*
X92526000Y-39226000D02*
X92272000Y-39226000D01*
X92272000Y-39226000D02*
X92272000Y-36900008D01*
X92272000Y-36900008D02*
X91947992Y-36576000D01*
X75000000Y-33572000D02*
X75000000Y-36382000D01*
X75000000Y-28960000D02*
X75000000Y-33572000D01*
X68396000Y-34294000D02*
X68650000Y-34040000D01*
X68396000Y-36382000D02*
X68396000Y-34294000D01*
X64332000Y-45002000D02*
X64332000Y-47542000D01*
X64332000Y-42208000D02*
X64332000Y-45002000D01*
X58998000Y-36874000D02*
X64332000Y-42208000D01*
X58998000Y-30524000D02*
X58998000Y-36874000D01*
X60562000Y-28960000D02*
X58998000Y-30524000D01*
X62300000Y-28960000D02*
X60562000Y-28960000D01*
X71335999Y-46126001D02*
X70936000Y-46526000D01*
X89623999Y-46126001D02*
X71335999Y-46126001D01*
X90424000Y-45326000D02*
X89623999Y-46126001D01*
X90424000Y-33528000D02*
X90424000Y-45326000D01*
X89667020Y-32771020D02*
X90424000Y-33528000D01*
X87698980Y-32771020D02*
X89667020Y-32771020D01*
X86430000Y-34040000D02*
X87698980Y-32771020D01*
X63570000Y-35604000D02*
X63570000Y-34040000D01*
X63570000Y-38398000D02*
X63570000Y-35604000D01*
X68650000Y-43478000D02*
X63570000Y-38398000D01*
X68650000Y-47542000D02*
X68650000Y-43478000D01*
X69781370Y-47542000D02*
X68650000Y-47542000D01*
X71952000Y-47542000D02*
X69781370Y-47542000D01*
X89986000Y-46780000D02*
X72714000Y-46780000D01*
X90932000Y-45834000D02*
X89986000Y-46780000D01*
X87700000Y-29430740D02*
X90932000Y-32662740D01*
X72714000Y-46780000D02*
X71952000Y-47542000D01*
X90932000Y-32662740D02*
X90932000Y-45834000D01*
X87700000Y-28960000D02*
X87700000Y-29430740D01*
X60842000Y-34228000D02*
X61030000Y-34040000D01*
X60842000Y-33852000D02*
X61030000Y-34040000D01*
X60842000Y-31540000D02*
X60842000Y-33852000D01*
X66044000Y-34106000D02*
X66110000Y-34040000D01*
X66044000Y-33974000D02*
X66110000Y-34040000D01*
X66044000Y-31540000D02*
X66044000Y-33974000D01*
D41*
X121153000Y-57231000D02*
X121726001Y-57804001D01*
D37*
X117418000Y-57231000D02*
X121153000Y-57231000D01*
X117418000Y-57231000D02*
X111553000Y-57231000D01*
D41*
X102672000Y-64560000D02*
X102432000Y-64320000D01*
D37*
X105480000Y-64560000D02*
X102672000Y-64560000D01*
X113100000Y-64560000D02*
X105480000Y-64560000D01*
X105734000Y-69386000D02*
X105734000Y-64814000D01*
X105734000Y-64814000D02*
X105480000Y-64560000D01*
X109521000Y-57231000D02*
X102432000Y-64320000D01*
X111553000Y-57231000D02*
X109521000Y-57231000D01*
X113100000Y-64560000D02*
X113100000Y-69640000D01*
D38*
X72690000Y-28730000D02*
X72460000Y-28960000D01*
X72690000Y-26460000D02*
X72690000Y-28730000D01*
D41*
X121357002Y-45981000D02*
X121726001Y-45612001D01*
D37*
X117418000Y-45981000D02*
X121357002Y-45981000D01*
D39*
X96454000Y-33782000D02*
X96454000Y-31750000D01*
X97216000Y-30988000D02*
X96454000Y-31750000D01*
X97536000Y-30988000D02*
X97216000Y-30988000D01*
D40*
X69690000Y-26714000D02*
X69690000Y-26460000D01*
X71190000Y-28214000D02*
X69690000Y-26714000D01*
X71190000Y-29635000D02*
X71190000Y-28214000D01*
X72587000Y-31032000D02*
X71190000Y-29635000D01*
X72587000Y-32643000D02*
X72587000Y-31032000D01*
X71190000Y-34040000D02*
X72587000Y-32643000D01*
X76143000Y-29436847D02*
X76143000Y-28111000D01*
X75278000Y-27246000D02*
X75278000Y-26460000D01*
X77540000Y-32810000D02*
X77540000Y-30833847D01*
X76143000Y-28111000D02*
X75278000Y-27246000D01*
X77540000Y-30833847D02*
X76143000Y-29436847D01*
X78008001Y-33278001D02*
X77540000Y-32810000D01*
X78048001Y-33278001D02*
X78008001Y-33278001D01*
X78810000Y-34040000D02*
X78048001Y-33278001D01*
D41*
X77540000Y-27882370D02*
X78897360Y-26525010D01*
X77540000Y-28960000D02*
X77540000Y-27882370D01*
D42*
X78897360Y-26450000D02*
X90000000Y-26450000D01*
D37*
X121736000Y-27984000D02*
X121482000Y-27984000D01*
X121228000Y-28492000D02*
X121736000Y-27984000D01*
X112971000Y-28492000D02*
X121228000Y-28492000D01*
X111204010Y-26725010D02*
X112971000Y-28492000D01*
D39*
X110929000Y-26450000D02*
X111204010Y-26725010D01*
X95890000Y-26450000D02*
X95828000Y-26512000D01*
X95978000Y-26450000D02*
X95890000Y-26450000D01*
D42*
X90000000Y-26450000D02*
X95978000Y-26450000D01*
X95978000Y-26450000D02*
X110929000Y-26450000D01*
D37*
X110851000Y-47340320D02*
X110851000Y-38689000D01*
X91510000Y-64560000D02*
X93631320Y-64560000D01*
X102940000Y-30778000D02*
X102940000Y-30270000D01*
X110851000Y-38689000D02*
X102940000Y-30778000D01*
X95872660Y-62064660D02*
X94050000Y-60242000D01*
X96126660Y-62064660D02*
X95872660Y-62064660D01*
X93631320Y-64560000D02*
X96126660Y-62064660D01*
X96126660Y-62064660D02*
X110851000Y-47340320D01*
X121736000Y-40176000D02*
X121482000Y-40176000D01*
X121228000Y-39668000D02*
X121736000Y-40176000D01*
X111830000Y-39668000D02*
X121228000Y-39668000D01*
X110851000Y-38689000D02*
X111830000Y-39668000D01*
X91510000Y-64560000D02*
X91510000Y-69640000D01*
D39*
X30690000Y-26206000D02*
X29210000Y-27686000D01*
X29210000Y-27686000D02*
X29210000Y-32766000D01*
X30690000Y-26206000D02*
X34560000Y-26206000D01*
M02*
