G04 #@! TF.GenerationSoftware,KiCad,Pcbnew,5.1.5+dfsg1-2build2*
G04 #@! TF.CreationDate,2021-11-29T23:12:50+10:30*
G04 #@! TF.ProjectId,tda8954-btl,74646138-3935-4342-9d62-746c2e6b6963,rev?*
G04 #@! TF.SameCoordinates,Original*
G04 #@! TF.FileFunction,Paste,Top*
G04 #@! TF.FilePolarity,Positive*
%FSLAX46Y46*%
G04 Gerber Fmt 4.6, Leading zero omitted, Abs format (unit mm)*
G04 Created by KiCad (PCBNEW 5.1.5+dfsg1-2build2) date 2021-11-29 23:12:50*
%MOMM*%
%LPD*%
G04 APERTURE LIST*
%ADD10R,1.300000X0.700000*%
%ADD11R,0.700000X1.300000*%
%ADD12R,1.000000X1.250000*%
%ADD13R,1.250000X1.000000*%
%ADD14R,1.000000X1.600000*%
%ADD15R,1.200000X1.200000*%
%ADD16R,1.700000X1.300000*%
%ADD17R,5.000000X3.250000*%
%ADD18R,0.800000X0.900000*%
G04 APERTURE END LIST*
D10*
X94234000Y-29144000D03*
X94234000Y-27244000D03*
D11*
X96454000Y-31750000D03*
X94554000Y-31750000D03*
D12*
X34560000Y-26206000D03*
X36560000Y-26206000D03*
D13*
X75000000Y-36382000D03*
X75000000Y-38382000D03*
X68396000Y-38382000D03*
X68396000Y-36382000D03*
X94234000Y-35846000D03*
X94234000Y-37846000D03*
X92202000Y-32782000D03*
X92202000Y-34782000D03*
X98241000Y-69370000D03*
X98241000Y-67370000D03*
D14*
X72690000Y-26460000D03*
X69690000Y-26460000D03*
X75278000Y-26460000D03*
X78278000Y-26460000D03*
D12*
X93812000Y-51352000D03*
X95812000Y-51352000D03*
D13*
X96082000Y-37846000D03*
X96082000Y-35846000D03*
X92202000Y-28718000D03*
X92202000Y-30718000D03*
X71952000Y-50828000D03*
X71952000Y-48828000D03*
X77794000Y-50828000D03*
X77794000Y-48828000D03*
X79318000Y-38382000D03*
X79318000Y-36382000D03*
X70612000Y-36382000D03*
X70612000Y-38382000D03*
D12*
X85430000Y-36620000D03*
X87430000Y-36620000D03*
X85430000Y-38398000D03*
X87430000Y-38398000D03*
X87430000Y-40176000D03*
X85430000Y-40176000D03*
D14*
X76040000Y-31540000D03*
X79040000Y-31540000D03*
X70960000Y-31540000D03*
X73960000Y-31540000D03*
D13*
X72968000Y-36382000D03*
X72968000Y-38382000D03*
X77032000Y-38382000D03*
X77032000Y-36382000D03*
D12*
X81366000Y-40176000D03*
X83366000Y-40176000D03*
X83366000Y-38398000D03*
X81366000Y-38398000D03*
X81366000Y-36620000D03*
X83366000Y-36620000D03*
X94320000Y-40938000D03*
X96320000Y-40938000D03*
D15*
X78810000Y-65914000D03*
X78810000Y-63714000D03*
D16*
X68127000Y-60496000D03*
X68127000Y-56996000D03*
D15*
X85668000Y-63714000D03*
X85668000Y-65914000D03*
X82366000Y-65914000D03*
X82366000Y-63714000D03*
D17*
X116910000Y-45981000D03*
X116910000Y-57231000D03*
X116910000Y-39705000D03*
X116910000Y-28455000D03*
D18*
X87192000Y-48828000D03*
X88142000Y-50828000D03*
X86242000Y-50828000D03*
X82620000Y-48828000D03*
X83570000Y-50828000D03*
X81670000Y-50828000D03*
X93608000Y-48034000D03*
X95508000Y-48034000D03*
X94558000Y-46034000D03*
D11*
X94554000Y-33782000D03*
X96454000Y-33782000D03*
X62742000Y-31540000D03*
X60842000Y-31540000D03*
X64144000Y-31540000D03*
X66044000Y-31540000D03*
D10*
X96266000Y-29144000D03*
X96266000Y-27244000D03*
X87192000Y-42528000D03*
X87192000Y-44428000D03*
X85160000Y-44428000D03*
X85160000Y-42528000D03*
X88462000Y-54334000D03*
X88462000Y-52434000D03*
X83890000Y-54334000D03*
X83890000Y-52434000D03*
X92272000Y-42528000D03*
X92272000Y-44428000D03*
X79826000Y-48878000D03*
X79826000Y-50778000D03*
X85922000Y-54334000D03*
X85922000Y-52434000D03*
X81350000Y-52434000D03*
X81350000Y-54334000D03*
X92272000Y-41126000D03*
X92272000Y-39226000D03*
X68269000Y-63986000D03*
X68269000Y-62086000D03*
X94558000Y-42528000D03*
X94558000Y-44428000D03*
X85668000Y-58276000D03*
X85668000Y-60176000D03*
X82366000Y-60176000D03*
X82366000Y-58276000D03*
X79572000Y-42528000D03*
X79572000Y-44428000D03*
X90240000Y-50778000D03*
X90240000Y-48878000D03*
X81604000Y-44428000D03*
X81604000Y-42528000D03*
D18*
X74050000Y-50828000D03*
X75950000Y-50828000D03*
X75000000Y-48828000D03*
M02*
