M48
; DRILL file {KiCad 5.1.5+dfsg1-2build2} date Sun 28 Nov 2021 09:57:47 PM ACDT
; FORMAT={-:-/ absolute / metric / decimal}
; #@! TF.CreationDate,2021-11-28T21:57:47+10:30
; #@! TF.GenerationSoftware,Kicad,Pcbnew,5.1.5+dfsg1-2build2
FMAT,2
METRIC
T1C0.400
T2C0.500
T3C0.800
T4C1.000
T5C1.097
T6C1.200
T7C1.300
T8C1.400
T9C1.100
T10C3.200
%
G90
G05
T1
X60.776Y-55.416
X61.538Y-54.437
X70.936Y-46.526
X80.08Y-67.1
X81.35Y-55.67
X85.922Y-55.67
X90.17Y-52.324
X91.948Y-36.576
X97.536Y-30.988
T2
X66.618Y-37.382
X71.698Y-41.446
X73.73Y-48.812
X75.381Y-62.655
X78.302Y-41.446
X83.312Y-42.208
X83.382Y-44.958
X89.224Y-42.208
X92.202Y-31.75
X95.123Y-39.116
X98.114Y-42.208
X98.622Y-64.814
T3
X64.332Y-47.542
X64.332Y-52.542
X61.03Y-34.04
X62.3Y-28.96
X63.57Y-34.04
X64.84Y-28.96
X66.11Y-34.04
X67.38Y-28.96
X68.65Y-34.04
X69.92Y-28.96
X71.19Y-34.04
X72.46Y-28.96
X73.73Y-34.04
X75.0Y-28.96
X76.27Y-34.04
X77.54Y-28.96
X78.81Y-34.04
X80.08Y-28.96
X81.35Y-34.04
X82.62Y-28.96
X83.89Y-34.04
X85.16Y-28.96
X86.43Y-34.04
X87.7Y-28.96
X88.97Y-34.04
X70.936Y-57.448
X70.936Y-59.988
X78.556Y-57.448
X78.556Y-59.988
X68.65Y-47.542
X68.65Y-52.542
T4
X65.024Y-57.404
X65.024Y-59.944
X53.156Y-29.0
X53.156Y-34.0
X41.98Y-29.0
X41.98Y-34.0
T5
X62.554Y-67.608
X65.094Y-67.608
X71.174Y-67.608
X73.714Y-67.608
T6
X55.245Y-55.88
X55.245Y-60.88
X55.245Y-41.91
X55.245Y-46.91
X102.94Y-30.27
X102.94Y-45.27
X102.94Y-49.32
X102.94Y-64.32
X94.05Y-55.162
X94.05Y-60.242
X42.545Y-48.895
X42.545Y-53.895
X100.654Y-69.386
X105.734Y-69.386
X42.545Y-62.865
X42.545Y-67.865
T7
X29.788Y-45.764
X29.788Y-50.764
X29.788Y-55.764
T8
X29.21Y-27.686
X29.21Y-32.766
X121.736Y-27.984
X121.736Y-40.176
X27.248Y-41.954
X32.328Y-41.954
X113.1Y-64.56
X113.1Y-69.64
X27.248Y-59.734
X32.328Y-59.734
X91.51Y-64.56
X91.51Y-69.64
X27.248Y-50.844
X32.328Y-50.844
X121.736Y-45.51
X121.736Y-57.702
T9
X62.554Y-70.148
X65.094Y-70.148
X71.174Y-70.148
X73.714Y-70.148
T10
X29.0Y-69.0
X121.0Y-69.0
T0
M30
